<svg xmlns="http://www.w3.org/2000/svg" viewBox="0 0 251 88">
  <g fill="none" fill-rule="nonzero">
    <g transform="matrix(1 0 0 -1 0 87.58)">
      <path fill="#000" d="M151.91 58.3c-.91-.26-1.9-1.47-2.1-2.49-.42-2.5 1.6-4.37 4.26-3.96a3.34 3.34 0 0 1 2.06 5.42c-.97 1.15-2.52 1.53-4.22 1.02Zm22.4-.24a3 3 0 0 1-1.7-2.89c0-2.1 1.31-3.33 3.5-3.33 2.3.03 3.5 1.13 3.5 3.3 0 1.5-.56 2.43-1.77 2.96-1.18.55-2.4.53-3.54-.04Zm48.13 0a3 3 0 0 1-1.7-2.89c0-2.1 1.32-3.33 3.5-3.33 2.31.03 3.5 1.13 3.5 3.3 0 1.5-.55 2.43-1.76 2.96-1.19.55-2.4.53-3.54-.04Zm-61.66-12.83c.06-9.82.12-12.83.34-13.32.9-2.1 3.09-2.88 7.12-2.54l1.82.15v4.62h-.74c-.47 0-.91.17-1.17.42-.42.43-.42.7-.42 11.88v11.45h-7.02l.06-12.66Zm-50.83 10.6-8.5-23.53-.94-2.61h7.34l1.08 3.35 1.08 3.33h8.4l1.06-3.33 1.06-3.35h7.53l-.92 2.6c-1.1 3.06-8.29 23-8.5 23.54-.13.32-.55.36-4.35.36s-4.22-.04-4.34-.36Zm5.51-9.92c.57-1.87 1.06-3.52 1.12-3.65.07-.21-.48-.27-2.35-.27h-2.46l.17.59c1.19 4.1 2.25 7.23 2.38 7a65 65 0 0 0 1.14-3.67Zm19.19 4.45c-3.67-1.02-5.51-3.05-5.51-6.02 0-1.9.27-2.78 1.25-3.88 1.02-1.15 2.54-1.91 5.22-2.63 3.58-.95 4.55-1.55 4.55-2.76 0-1.06-.84-1.63-2.29-1.52-.9.08-1.25.23-1.86.82-.4.39-.79.94-.85 1.19-.13.49-.17.49-3.5.49-3.86 0-3.71.1-2.95-1.97a6.4 6.4 0 0 1 3.14-3.5c1.8-.98 3.41-1.34 5.98-1.34 5-.02 8.16 1.61 9.06 4.67a5.86 5.86 0 0 1-1.47 5.87c-1.14 1.06-2.03 1.48-4.81 2.31-2.9.85-3.6 1.15-4.26 1.85-.58.61-.53 1.35.1 1.97.98 1 2.57.44 3.2-1.1l.3-.7h3.29c3.26 0 3.28 0 3.28.48 0 .94-1.18 3-2.28 3.99-1.62 1.44-3.04 1.93-5.99 2.02-1.73.06-2.77-.03-3.6-.24Zm59.73.1c-1.42-.35-2.05-.84-2.92-2.18l-.83-1.31v3.29h-7V29.69h6.98l.06 6.85c.09 7.52.13 7.8 1.45 8.92 1.29 1.08 3.47.51 4.2-1.1.31-.68.35-1.76.42-7.72l.06-6.95h6.98v6.25c0 7.28.1 8.12 1.27 9.29.68.66.93.78 1.72.78 1.2 0 2.22-.63 2.7-1.65.3-.68.35-1.76.41-7.72l.07-6.95h7.02l-.1 7.9c-.05 5.26-.18 8.15-.35 8.68-.85 2.63-3.1 4.2-6.25 4.37-3.12.17-4.4-.43-6.4-3.01l-.64-.85-.58 1a6.7 6.7 0 0 1-3 2.45c-.8.36-4.18.51-5.27.24Zm43.58-.12a9.3 9.3 0 0 1-4.41-2.46 6.06 6.06 0 0 1-1.76-3.6l-.17-1.02h6.49l.23.83a2.6 2.6 0 0 0 3.97 1.5c.72-.45.97-1.04 1-2.44l.01-.85-2.54-.14c-4.9-.28-7.8-1.64-9.18-4.29a4.86 4.86 0 0 1-.55-2.67c-.02-2.48 1.01-4.16 3.26-5.3 1.85-.96 5.16-.87 7.17.15 1 .5 1.23.74 1.53 1.54.4 1.04.49.94.76-.89l.13-1.01h6.8l-.17.8c-.08.43-.2 3.95-.3 7.79-.18 7.86-.25 8.24-1.73 9.94a7.64 7.64 0 0 1-4.3 2.23c-1.74.31-4.88.27-6.24-.11Zm5.47-12.64c-.02-1.38-.38-2.37-1.14-3.07-.66-.62-.92-.7-1.91-.7-1.57 0-2.25.53-2.25 1.78 0 1.72 1.4 2.63 4.1 2.65l1.2.02v-.68ZM149.92 39.97V29.69h6.78v20.57h-6.78zM172.61 39.97V29.69h6.99v20.57h-6.99zM220.74 39.97V29.69h7v20.57h-7zM180.24 23.1v-1.73l-.55.36c-.64.4-2.16.47-2.84.11-.85-.45-1.27-1.46-1.27-3.07 0-1.64.42-2.63 1.31-3.1.7-.38 2.14-.32 2.74.09.61.44.82.44.82.04 0-.17.2-.32.43-.32.4 0 .42.15.42 4.66v4.67h-.53c-.53 0-.53-.02-.53-1.72Zm-.53-2.34c.3-.3.42-.76.49-1.82.06-1.23.02-1.53-.36-2.02a1.8 1.8 0 0 0-2.34-.49c-.72.36-.97 1-.95 2.48.02 2.1 1.78 3.14 3.16 1.85ZM227.32 20.14v-4.66h1.06v9.33h-1.06zM113.45 19.83v-4.35h2.43c2.3 0 2.44.02 2.44.42 0 .4-.15.43-1.9.43h-1.91v3.39h1.8c1.65 0 1.8.04 1.8.42 0 .39-.15.43-1.8.43h-1.8v2.75h1.9c1.76 0 1.91.03 1.91.43s-.15.42-2.44.42h-2.43v-4.34Zm37.53 0c0-4.18.02-4.35.42-4.35.36 0 .4.17.47 1.86l.06 1.85 1.87.06c1.67.07 1.84.11 1.84.47 0 .38-.14.42-1.9.42h-1.91v3.18h2.01c1.87 0 2.01.03 2.01.43s-.14.42-2.43.42h-2.44v-4.34Zm61.28 4.26c0-.07.68-2.02 1.5-4.37 1.47-4.07 1.55-4.26 2.06-4.2.47.07.62.34 1.36 2.4l1.55 4.3.7 1.95h-.55c-.56 0-.64-.15-1.83-3.62l-1.25-3.63-1.27 3.63c-1.15 3.33-1.3 3.62-1.76 3.62-.28 0-.51-.04-.51-.08Zm-84.06-2.06c-.93-.15-1.6-.83-1.6-1.59 0-.66.76-1.42 1.9-1.89 1.25-.5 1.7-.9 1.7-1.5 0-.7-1.19-1.06-2.44-.74-1.19.3-1.17.3-1.17-.17 0-.5.55-.7 1.91-.72 1.34-.03 2.25.38 2.57 1.16.44 1.1.08 1.66-1.7 2.53-1.72.84-2.06 1.2-1.63 1.78.3.42 1.27.53 2.37.25.53-.13.7-.1.8.2.1.18.11.37.07.42-.21.23-2.05.4-2.78.27Zm6.5 0c-1.36-.27-2.17-1.5-2.17-3.3 0-1.2.5-2.3 1.31-2.89 1.02-.76 4-.47 4 .38 0 .26-.24.3-1.26.2a6.3 6.3 0 0 0-1.8 0c-.57.14-1.19 1.07-1.19 1.82 0 .4.13.42 2.23.42h2.22v.66c0 1.88-1.48 3.1-3.35 2.71Zm1.3-.85c.56-.25 1.11-1.29.88-1.65-.07-.13-.83-.23-1.72-.23-1.36 0-1.57.04-1.57.38 0 .5.6 1.31 1.15 1.52.59.26.65.26 1.27-.02Zm27.96.85c-1.36-.27-2.17-1.5-2.17-3.3 0-1.2.51-2.3 1.32-2.89 1.01-.76 3.98-.47 3.98.38 0 .26-.23.3-1.25.2a6.3 6.3 0 0 0-1.8 0c-.57.14-1.19 1.07-1.19 1.82 0 .4.13.42 2.23.42h2.23v.66c0 1.88-1.49 3.1-3.35 2.71Zm1.31-.85c.55-.25 1.1-1.29.87-1.65-.06-.13-.83-.23-1.72-.23-1.35 0-1.57.04-1.57.38 0 .5.6 1.31 1.15 1.52.6.26.66.26 1.27-.02Zm5.6.91c-1.36-.16-2.48-2.2-2.2-3.94.29-1.86 1.4-2.75 3.3-2.73 1.34.02 1.9.23 1.9.67 0 .34-.14.39-1.43.28-1.3-.09-1.5-.04-2.02.4-.31.28-.63.83-.7 1.21l-.12.68h4.56l-.11 1.08c-.17 1.68-1.38 2.57-3.18 2.36Zm1.8-1.35c.2-.23.36-.66.36-.93 0-.5-.06-.51-1.55-.51-.87 0-1.6.06-1.7.12-.06.07-.01.4.11.75.43 1.2 1.98 1.52 2.78.57Zm12.6 1.31c-1.95-.34-2.87-2.82-1.87-5.02.8-1.76 3.14-2.19 4.62-.83.74.68.79.8.87 2.18.15 2.7-1.2 4.08-3.62 3.67Zm2.24-1.52c.56-.72.58-2.68.07-3.46-.77-1.17-2.57-1.1-3.2.1-.4.79-.4 2.4 0 3.19.59 1.14 2.35 1.23 3.13.17Zm5.58 1.5a3 3 0 0 1-1-.53c-.38-.34-.4-.34-.4.09 0 .31-.13.46-.42.46-.4 0-.43-.15-.43-3.28 0-3.08.02-3.3.4-3.3.37 0 .4.24.5 2.32.1 2.59.38 3.29 1.37 3.48.32.06.83 0 1.13-.13.53-.25.53-.32.59-2.97.06-2.67.06-2.7.55-2.7.51 0 .51.03.6 2.45.08 2.84.34 3.33 1.78 3.33 1.2 0 1.35-.34 1.35-3.27v-2.5h1.06v2.42c0 2.6-.19 3.47-.87 3.92-.7.42-2.27.34-2.94-.15-.51-.38-.62-.4-.9-.13-.44.45-1.63.68-2.37.5Zm-72.16-.19c-.53-.21-.55-.23-.36-.72.09-.23.23-.28.47-.15.2.1.72.23 1.16.32.66.13.87.06 1.32-.38.3-.3.53-.72.53-.96 0-.46-.28-.57-2-.72-1.84-.17-2.75-1.38-2.14-2.82.22-.53.47-.74 1.1-.9.94-.26 2-.05 2.61.5.34.3.39.3.5-.1.05-.24.25-.43.44-.43.3 0 .34.38.34 2.76 0 2.67-.03 2.8-.53 3.28-.43.45-.7.53-1.74.51-.68 0-1.44-.08-1.7-.19Zm3.12-3.33a7 7 0 0 0-.23-.97c-.17-.64-.39-.9-.98-1.15-.93-.38-1.7-.21-2 .45-.3.61.05 1.33.73 1.6.57.24 2.48.28 2.48.07Zm33.08.26c0-3.14.02-3.3.42-3.3.38 0 .43.16.43 1.69 0 2.16.14 2.86.76 3.52.34.38.7.52 1.25.52.6 0 .74.09.74.43 0 .66-1.27.57-2.1-.13l-.65-.55v.55c0 .4-.11.55-.43.55-.4 0-.42-.15-.42-3.28Zm64.1 3c-.32-.16-.4-.35-.3-.54.15-.24.36-.26 1.15-.05 1.46.36 2.27-.08 2.27-1.25 0-.46-.4-.63-1.5-.63-1.07 0-2.21-.47-2.51-1.02-.4-.77-.28-1.83.28-2.36.7-.65 2.24-.67 3.1-.06.58.45.6.45.73.04.09-.23.28-.42.45-.42.23 0 .3.5.3 2.84 0 2.82 0 2.86-.56 3.29-.65.5-2.63.61-3.41.17Zm3.05-3.87c-.23-1.36-1.33-2.06-2.56-1.57-.51.19-.57.32-.51 1 .08.97.66 1.33 2.16 1.33h1.04l-.13-.76Zm6 1.99c0-3.58.47-4.43 2.44-4.45.68-.02 1.17.1 1.6.44.63.45.63.45.63.02 0-.27.15-.42.42-.42.4 0 .43.15.43 3.29 0 3.13-.02 3.28-.43 3.28-.38 0-.42-.15-.42-1.84 0-2.57-.25-3.42-1.17-3.8-1-.4-1.31-.38-1.9.24-.51.48-.53.63-.53 2.96v2.44h-1.06V19.9Zm8.32 1.44-.79-.72V18.8c0-1.74.02-1.85.66-2.46a3.56 3.56 0 0 1 2.8-.96c.25.07.7.15 1 .22.33.06.52.25.52.5 0 .36-.12.39-1.37.3-1.04-.08-1.49-.04-1.9.23-.5.32-1 1.53-.82 1.9.05.08 1.08.14 2.31.14 2.46 0 2.42-.02 2 1.53a2.51 2.51 0 0 1-2.57 1.86c-.89 0-1.16-.1-1.84-.72Zm2.97-.53c.2-.19.4-.57.42-.87.06-.53.04-.53-1.57-.6-1.61-.05-1.65-.03-1.65.43.02 1.38 1.78 2.04 2.8 1.04Zm-98.31.28c-.53-.51-.45-1.91.13-2.3.63-.44 1.14-.42 1.65.1.55.54.55 1.71.04 2.18-.48.44-1.4.46-1.82.02Zm62.53.04c-.53-.38-.53-1.65 0-2.25 1.17-1.3 2.93.6 1.89 2.08-.36.53-1.27.62-1.89.17Z"/>
      <ellipse cx="44" cy="43.79" fill="#FFDC09" rx="44" ry="43.79"/>
    </g>
    <circle cx="29.16" cy="17.49" r="5.2" fill="#000"/>
    <circle cx="55.03" cy="64.57" r="1.38" fill="#000"/>
    <circle cx="65.2" cy="64.57" r="1.38" fill="#000"/>
    <path fill="#000" d="M65.08 68.87c.57 0 1.03.45 1.06 1.02v.07h.01c-.16 2.9-2.64 5.27-5.95 5.27a5.69 5.69 0 0 1-5.9-5.08 1.06 1.06 0 0 1 1.05-1.28c.58 0 .71.5 1.05 1.06.35.56 1.09 3.3 3.82 3.3 2.73 0 3.44-2.73 3.8-3.3.35-.57.45-1.03 1.01-1.06h.05ZM64.64 17.35a4.88 4.88 0 0 1 1.04 6.82L30.66 71.85a4.88 4.88 0 0 1-7.86-5.78L57.82 18.4a4.88 4.88 0 0 1 6.82-1.04Z"/>
  </g>
</svg>
