<svg xmlns="http://www.w3.org/2000/svg" viewBox="0 0 199 53" width="139" height="37">
  <g fill="#2962FF" fill-rule="evenodd">
    <path d="M45.11 16.5c2.5-5.55.66-12-4.62-15.04C35.74-1.18 29.81-.12 26 3.7c-.8-.13-1.45-.13-2.25-.13C10.68 3.57 0 13.99 0 26.78 0 39.58 10.68 50 23.87 50c13.2 0 23.87-10.42 23.87-23.2a24.75 24.75 0 0 0-2.63-10.3ZM34.03 37.85c-.79.66-1.58 1.06-2.5 1.58-.93.4-1.98.8-3.04.93a16.8 16.8 0 0 1-9.5-.66 15.56 15.56 0 0 1-4.61-3.04 14.96 14.96 0 0 1-3.04-4.48 13 13 0 0 1-1.05-5.54v-.13c0-1.98.4-3.83 1.05-5.54.8-1.72 1.72-3.17 3.04-4.49a15.61 15.61 0 0 1 4.61-3.03 14.87 14.87 0 0 1 5.94-1.05c1.32 0 2.5.13 3.7.26 1.05.26 2.1.53 2.9.92.92.4 1.7.8 2.5 1.32.8.53 1.45 1.06 2.11 1.72l-3.96 4.35a13.89 13.89 0 0 0-3.42-2.24 9.03 9.03 0 0 0-7.13-.14A7.34 7.34 0 0 0 19 20.45a7.55 7.55 0 0 0-1.7 2.77 9.2 9.2 0 0 0-.67 3.3v.13c0 1.19.26 2.24.66 3.3.4 1.05.92 1.98 1.71 2.77.66.79 1.59 1.45 2.64 1.84a9.2 9.2 0 0 0 3.3.66c1.58 0 3.03-.26 4.09-.92a12.9 12.9 0 0 0 3.3-2.37l3.95 3.82c-.79.8-1.45 1.45-2.24 2.11ZM80.63 23.88a9.06 9.06 0 0 0-2.5-5.54c-1.33-1.32-3.3-1.98-5.81-1.98-2.64 0-4.75.92-6.33 2.9-1.59 1.98-2.38 4.49-2.38 7.52v4.88c0 3.17.8 5.67 2.38 7.65a7.64 7.64 0 0 0 6.33 2.9c2.5 0 4.48-.66 5.8-1.84 1.45-1.19 2.24-3.17 2.5-5.54h2.25v.13c-.26 2.9-1.32 5.27-3.17 6.86-1.84 1.71-4.35 2.5-7.52 2.5-3.3 0-6.06-1.18-8.04-3.56-1.98-2.37-3.03-5.4-3.03-9.1v-4.75c0-3.69 1.05-6.72 3.03-9.1 1.98-2.37 4.75-3.56 8.04-3.56 3.17 0 5.68.8 7.52 2.5 1.85 1.59 2.9 3.97 3.17 6.87v.13h-2.24v.13Zm22.15 20.05a21.2 21.2 0 0 0-.39-1.85c-.13-.53-.13-1.05-.13-1.58a8.47 8.47 0 0 1-3.3 2.77 8.88 8.88 0 0 1-4.62 1.05c-2.1 0-3.82-.52-5-1.71a6.06 6.06 0 0 1-1.86-4.49c0-1.97.93-3.56 2.64-4.74 1.72-1.2 4.22-1.85 7.12-1.85h4.88v-2.64a4.6 4.6 0 0 0-1.58-3.69c-1.05-.92-2.5-1.32-4.35-1.32-1.71 0-3.17.4-4.22 1.32a3.52 3.52 0 0 0-1.71 3.03H88v-.13c-.13-1.58.66-3.03 2.25-4.35 1.58-1.32 3.69-1.85 6.06-1.85 2.5 0 4.49.66 5.94 1.85 1.45 1.19 2.24 2.9 2.24 5.28v10.55c0 .79 0 1.45.13 2.24.13.66.26 1.45.4 2.11h-2.25Zm-.52-10.55h-5.02c-2.24 0-3.95.4-5.4 1.45-1.32.92-1.98 2.1-1.98 3.42 0 1.2.4 2.12 1.18 2.9.8.8 1.98 1.06 3.43 1.06 1.72 0 3.3-.4 4.75-1.18a7.08 7.08 0 0 0 2.9-3.04v-4.61h.14Zm35.87 10.55V31.26c0-2.63-.52-4.61-1.45-5.67a5.36 5.36 0 0 0-4.09-1.71c-1.85 0-3.43.52-4.48 1.71a8.25 8.25 0 0 0-1.98 4.49v13.85h-2.5V31.26c0-2.63-.53-4.48-1.46-5.67-.92-1.19-2.37-1.71-4.09-1.71-1.71 0-3.16.4-4.09 1.32a6.62 6.62 0 0 0-2.1 3.43v15.16h-2.51V22.3h2.24l.26 3.56a6.84 6.84 0 0 1 2.9-2.9 8.72 8.72 0 0 1 4.23-1.05c1.71 0 3.16.4 4.22 1.18a6.45 6.45 0 0 1 2.5 3.7 7.14 7.14 0 0 1 2.9-3.56 7.25 7.25 0 0 1 4.5-1.32c2.36 0 4.21.79 5.53 2.24 1.32 1.58 1.98 3.96 1.98 7.12v12.67h-2.5Zm6.6 0h2.5V22.3h-2.5v21.63Zm0-27.83h2.5v-3.3h-2.5v3.3Zm7.91 27.83h2.5V12.67h-2.5v31.26Zm14.5 3.43a10.21 10.21 0 0 1-2.23 3.69c-.93 1.05-2.25 1.58-4.1 1.58-.25 0-.65 0-1.05-.13-.4 0-.65-.13-.92-.13l.26-1.98c.13 0 .4 0 .8.13h.78c1.06 0 1.98-.4 2.51-1.05a8.78 8.78 0 0 0 1.58-2.9l1.2-2.9-8.58-21.37h2.77l6.07 15.82.79 2.64h.13l6.72-18.33h2.77l-9.5 24.93Zm28.9-6.07a9.36 9.36 0 0 1-7.13 3.03c-3.03 0-5.4-1.05-7.12-3.03-1.85-1.98-2.64-4.62-2.64-7.78v-.66c0-3.17.92-5.8 2.64-7.78a9.35 9.35 0 0 1 7.12-3.04c3.03 0 5.4 1.06 7.12 3.04 1.85 1.97 2.64 4.61 2.64 7.78v.66c.13 3.16-.79 5.67-2.64 7.78Zm.26-8.57c0-2.51-.66-4.62-1.98-6.33a6.56 6.56 0 0 0-5.4-2.64c-2.25 0-4.1.92-5.42 2.64a10.07 10.07 0 0 0-1.98 6.33v.66c0 2.5.66 4.61 1.98 6.33a6.46 6.46 0 0 0 5.41 2.5c2.24 0 4.09-.79 5.4-2.5a10.08 10.08 0 0 0 1.99-6.33v-.66Z"/>
  </g>
</svg>
