<svg xmlns="http://www.w3.org/2000/svg" viewBox="0 0 173 32" width="205" height="37">
  <g fill="none" fill-rule="nonzero">
    <path fill="#00B3DC" d="m14.67 31.18 6.4-3.2-14.66-7.32-6.36 3.18 14.62 7.34Zm8.27-4.13 6.38-3.2L6.41 12.4.03 15.6l22.91 11.45Zm-.02-8.26 6.38-3.2-6.38-3.19-6.39 3.2 6.39 3.19Z"/>
    <path fill="#77C376" d="M6.39 4.14 0 7.34l14.66 7.32 6.4-3.2L6.38 4.15Zm16.53 6.4 6.41-3.2-6.39-3.2-6.4 3.2 6.38 3.2ZM14.66 0l-6.4 3.2 6.4 3.2 6.41-3.2-6.4-3.2Z"/>
    <path fill="#361F72" d="M50.57 10.32A6.52 6.52 0 0 0 46 8.62c-3.72 0-6.74 2.73-6.74 6.98s3.02 6.97 6.74 6.97c1.74 0 3.46-.53 4.65-1.64v1.98a9.2 9.2 0 0 1-4.63 1.22c-4.98 0-8.5-3.47-8.5-8.53a8.27 8.27 0 0 1 8.5-8.53c1.67 0 3.22.44 4.55 1.25v2Zm9.63-1.59-3.44 9.12h6.9L60.2 8.73ZM56.24 19.3l-1.72 4.56h-1.77l6.37-16.5h2.19l6.46 16.5h-1.83l-1.72-4.56h-7.98Zm16-3.25h1.73c2.71 0 4.32-1.27 4.32-3.8 0-2.12-1.3-3.67-4.66-3.67-.33 0-1 .03-1.38.05v7.42Zm0 7.81h-1.71V7.32c.75-.11 2.16-.25 3.13-.25 4.44 0 6.4 2.05 6.4 5.11a4.85 4.85 0 0 1-3.57 4.9l5.46 6.77H79.8l-5.1-6.39h-2.46v6.4Zm14.06-1.33c.64.07 1.27.11 1.91.1 4.72 0 8.04-2.35 8.04-7.38 0-3.9-2.47-6.62-8.34-6.62-.53 0-1.03.03-1.6.09v13.8ZM84.58 7.29c1.12-.14 2.25-.21 3.38-.22 7.54 0 10.1 3.92 10.1 8.14 0 4.64-2.7 8.92-9.87 8.92-1.39 0-2.44-.11-3.6-.25V7.29Zm16.04 13.67c1.33 1.06 2.52 1.7 4.19 1.7 1.97 0 3.66-.86 3.66-3.03 0-1.97-1.47-2.72-3.44-3.45-2.94-1.08-4.52-2.05-4.52-4.86 0-2.8 2.33-4.25 4.8-4.25 1.6 0 2.93.5 3.93 1.3v1.78c-1.33-1.05-2.44-1.61-3.93-1.61-1.86 0-3.14 1.11-3.14 2.8 0 1.6.94 2.37 3.33 3.2 3.05 1.06 4.66 2.2 4.66 5.09 0 3.03-2.39 4.5-5.35 4.5a6.7 6.7 0 0 1-4.19-1.28v-1.89Zm18.47 2.9h-1.72V8.84h-5.43v-1.5h12.58v1.5h-5.43v15Zm11.76-15.12-3.44 9.11h6.9l-3.46-9.11Zm-3.97 10.56-1.72 4.55h-1.77l6.38-16.5h2.19l6.45 16.5h-1.83l-1.72-4.55h-7.98Zm25.6-8.98a6.52 6.52 0 0 0-4.57-1.7c-3.72 0-6.74 2.73-6.74 6.98s3.02 6.97 6.74 6.97c1.74 0 3.46-.52 4.65-1.64v1.98a9.21 9.21 0 0 1-4.63 1.22c-4.99 0-8.5-3.47-8.5-8.53a8.27 8.27 0 0 1 8.5-8.53c1.6-.01 3.18.42 4.55 1.25v2Zm12.9-2.97h2.13l-7.43 8.22 7.95 8.28h-2.21l-7.87-8.11 7.42-8.4Zm-9.26 16.5h1.72V7.35h-1.72v16.5Zm14.84-.95h.14c.22 0 .37-.09.37-.3 0-.2-.13-.3-.37-.3-.05 0-.1 0-.15.02v.58Zm0 .95h-.44v-1.87c.2-.04.38-.06.58-.06.5 0 .8.23.8.66.01.24-.13.46-.34.56l.52.7h-.5l-.45-.6h-.18v.6Zm.21.52c.83 0 1.42-.6 1.42-1.46 0-.85-.6-1.45-1.42-1.45s-1.41.6-1.41 1.45c0 .86.6 1.46 1.41 1.46Zm0-3.11c.95 0 1.64.72 1.64 1.65a1.6 1.6 0 0 1-1.64 1.66 1.6 1.6 0 0 1-1.63-1.66c0-.93.69-1.65 1.63-1.65Z"/>
  </g>
</svg>
