<svg xmlns="http://www.w3.org/2000/svg" viewBox="0 0 112 24" width="172" height="37">
  <path fill="#2B6CDE" fill-rule="nonzero" d="M0 12C0 5.3 5.27 0 12.06 0c3.6 0 6.93 1.55 9.03 4.16.4.48.52.8.52 1.15 0 .67-.6 1.23-1.3 1.23a1.4 1.4 0 0 1-1.15-.56 8.67 8.67 0 0 0-7.07-3.45c-5.27 0-9.24 4.08-9.24 9.47 0 5.39 3.97 9.47 9.24 9.47 2.85 0 5.24-1.2 7.07-3.45.27-.36.7-.57 1.15-.56.7 0 1.3.56 1.3 1.23 0 .35-.14.67-.52 1.15-2.03 2.61-5.42 4.16-9.03 4.16A11.91 11.91 0 0 1 0 12Zm26.66 10.51V1.81c0-.8.56-1.44 1.38-1.44.79 0 1.38.63 1.38 1.44v19.7h9.88c.74 0 1.27.51 1.27 1.22 0 .67-.53 1.23-1.27 1.23H28.12c-.86 0-1.46-.63-1.46-1.45Zm62.52.24c0 .67-.56 1.23-1.3 1.23-.43 0-.8-.24-1.2-.74l-7-9.4H74.4v8.73c0 .78-.6 1.4-1.38 1.4-.8 0-1.37-.64-1.37-1.4V1.8c0-.79.6-1.4 1.4-1.4h6.74c4.43 0 7.41 2.7 7.41 6.7 0 3.1-1.75 5.43-4.6 6.34l6.1 8.28c.31.33.48.69.48 1.02ZM74.42 11.4h5.31c2.93 0 4.68-1.62 4.68-4.25 0-2.6-1.79-4.28-4.68-4.28h-5.3v8.53Zm22.75-9.95v21.1c0 .8-.6 1.43-1.38 1.43-.8 0-1.37-.63-1.37-1.43V1.45c0-.8.56-1.43 1.38-1.43.78-.02 1.37.61 1.37 1.43Zm14.63 21.3c0 .67-.56 1.23-1.27 1.23-.35 0-.7-.17-1.1-.56L98.35 12.1c-.24-.28-.43-.6-.43-.95s.17-.67.47-.99L108.45.56c.43-.4.7-.56 1.06-.56.7 0 1.27.56 1.27 1.23 0 .4-.17.7-.6 1.1l-9.2 8.83 10.3 10.59c.37.31.52.6.52 1Zm-45.5-.97L57.4.95C57.1.32 56.67 0 56.08 0c-.6 0-1.03.32-1.3.95l-8.91 20.81c-.15.36-.2.64-.2.88 0 .74.6 1.33 1.33 1.34.6 0 1.07-.35 1.3-.91l1.7-4.05.06-.14 1.02-2.46 5-12.3 4.84 12.31L62 18.9l1.87 4.2c.28.56.7.91 1.34.91.7 0 1.34-.63 1.34-1.34a2 2 0 0 0-.24-.88Z"/>
</svg>
