<svg xmlns="http://www.w3.org/2000/svg" viewBox="0 0 132 40" height="44" width="145">
  <g fill="none">
    <path fill="#0669FF" d="M3.38.2c2.9-.33 5.84-.16 8.77-.12 6.6.27 13.18.97 19.65 2.31a56.5 56.5 0 0 1 9.27 2.78 20.4 20.4 0 0 1 7.9 6.35 24.95 24.95 0 0 1 5 13.16c.12 2.15-.11 4.35-.92 6.36-1.11 3.01-2.85 6-5.66 7.73-2.8 1.65-6.24 1.4-9.27.62-1.2-.3-2.38-.7-3.5-1.24-5.59-2.95-10.6-6.86-15.35-11A116.66 116.66 0 0 1 1.9 8.12C1.17 6.98.08 5.93.02 4.49A4 4 0 0 1 3.38.19Zm13.01 9.27c-.08.88.65 1.5 1.08 2.19.34.41.6 1.05 1.21 1.07 3.1.18 6.2.28 9.29.45.96.04 1.82.88 1.88 1.86.11 1.1-.8 2.22-1.93 2.2-2.02-.02-4.03-.24-6.05-.24.8 1.17 1.9 2.12 2.86 3.17.32.28.58.75 1.06.74 3.09.15 6.18.25 9.26.4a2.04 2.04 0 0 1 1.78 2.62 2.1 2.1 0 0 1-1.99 1.4c-1.44 0-2.88-.21-4.33-.14.4.56 1 .93 1.54 1.34 1.71 1.17 3.42 2.44 5.46 2.98 1.9.6 4.13.73 5.83-.45a9.6 9.6 0 0 0 3.14-4.3c.99-2.27.76-4.87.14-7.21-.33-1.08-.64-2.2-1.29-3.15-.78-.76-1.45-1.63-2.34-2.28a9.2 9.2 0 0 0-3.22-1.62c-3-1-6.07-1.76-9.18-2.27a61.3 61.3 0 0 0-12.09-.96 2.27 2.27 0 0 0-2.1 2.2h-.01Z"/>
    <path fill="#02023A" d="M66.84 8.8h7.69c3.48-.06 7.16 1.53 8.9 4.66a11.4 11.4 0 0 1 1.13 7.92 9.5 9.5 0 0 1-4.47 6.32 11.2 11.2 0 0 1-5.36 1.38c-2.63.02-5.26 0-7.89 0V8.8Zm3.77 2.98v14.28h3.91a6.64 6.64 0 0 0 4.13-1.34c1.45-1.18 2.13-3.06 2.28-4.88.15-1.99-.15-4.12-1.37-5.75a5.8 5.8 0 0 0-4.63-2.31H70.6Zm39 2.6c1.72-.34 3.7.23 4.7 1.72.81 1.06 1.01 2.44 1.03 3.73v9.11h-3.48v-9.1c0-.77-.1-1.6-.65-2.17-.97-1-2.8-.9-3.65.17-.47.56-.63 1.3-.62 2v9.1h-3.48v-9.07c-.02-.83-.1-1.78-.74-2.38a2.66 2.66 0 0 0-3.17 0c-.45.35-1.1.74-.98 1.4v10.05h-3.4V14.61c.82.03 1.66-.07 2.47.07.67.23.55 1.1.72 1.66a4.88 4.88 0 0 1 4.87-1.88c1.24.31 2.06 1.41 2.54 2.53a4.68 4.68 0 0 1 3.85-2.61ZM87.8 29.04V14.62h3.48v14.42H87.8Zm1.05-20.69c1.42-.55 3.14.75 2.91 2.28-.09 1.52-2 2.48-3.28 1.65-1.62-.74-1.34-3.49.37-3.93Z"/>
    <path fill="#0669FF" d="M118.7 12.26V8.8h12.13v2.94c-1.54 1.7-3.04 3.42-4.59 5.11 1.48.15 3 .66 4.02 1.8a5.32 5.32 0 0 1 1.48 4.29 6.16 6.16 0 0 1-2.8 5.3c-2.03 1.39-4.64 1.54-7 1.09a13.3 13.3 0 0 1-4.48-1.98l1.6-3.11a9.26 9.26 0 0 0 5 1.8c1.14.05 2.4-.16 3.27-.96a2.82 2.82 0 0 0 .2-3.71 3.21 3.21 0 0 0-1.46-1.02 7.73 7.73 0 0 0-4.76-.06v-2.94l4.39-5.1-7 .01Z"/>
    <path fill="#A4A4BA" d="M93.6 32.92c-.42-.22-.46-.6-.2-.99.17.15.62.12.59.44.09.27-.26.37-.38.55Zm-26.13-.52c.72-.42 1.58-.08 2.27.25l-.31.53c-.54-.25-1.75-.59-1.74.34.46.61 1.46.44 1.97 1.04.37.5.25 1.34-.34 1.62-.84.43-1.84.14-2.53-.43l.4-.48c.5.3 1.08.64 1.68.43.37-.09.4-.68.06-.83-.59-.31-1.38-.26-1.82-.83-.33-.52-.22-1.34.36-1.64Zm14.82-.28h.62v4.23h-.63l.04-.36c-.55.51-1.45.55-2.02.05-.82-.71-.59-2.23.42-2.65.55-.22 1.12.04 1.58.34v-1.61Zm-1.35 1.8c-.7.36-.67 1.51.07 1.8.6.38 1.29-.25 1.24-.87.1-.7-.7-1.26-1.31-.92Zm13.98-1.8.63.02v4.23h-.63v-4.24Zm4.22.2c.4-.42 1-.24 1.45-.02l-.25.41c-.26-.03-.55-.18-.78.02-.08.18-.14.36-.2.55l.87.05v.52h-.79v2.5h-.62v-2.5h-.37l-.02-.51.34-.02c.08-.35.04-.79.37-1Zm19.56-.19h.62v4.24h-.63c.02-1.4 0-2.82 0-4.24Zm5.38-.01h.62v1.7c.4-.46 1.11-.76 1.68-.39 1.08.5 1 2.27-.04 2.78-.55.35-1.17-.02-1.65-.3l.02.44h-.63v-4.23Zm1 1.87c-.57.43-.49 1.48.19 1.76.66.34 1.4-.44 1.25-1.1-.07-.65-.92-1.06-1.45-.66Zm6.3-1.85.62-.01v4.24h-.63v-4.23Zm-43.83.27h.62v.9l.8.01-.01.53h-.74c.07.64-.2 1.41.2 1.97.26-.02.52-.08.78-.12.28.66-.68.78-1.1.57-.86-.5-.46-1.65-.54-2.46l-.38-.01v-.48h.37v-.91ZM70.5 35.07c-.23-1.16 1.1-2.13 2.15-1.63.71.24.86 1.04.85 1.7-.8.01-1.62-.01-2.42.03.3.82 1.33.89 1.92.34l.29.45c-.87.87-2.72.43-2.79-.89Zm.57-.48c.63.04 1.26.04 1.9 0-.15-.26-.24-.6-.56-.67-.56-.25-1.16.14-1.34.67Zm3.4-.76c.56-.65 1.71-.7 2.29-.03.35.35.28.89.34 1.34-.8.01-1.62 0-2.43.03.21.3.42.68.84.69.41.1.77-.16 1.11-.34l.29.47c-.61.43-1.48.6-2.13.17-.8-.45-.9-1.67-.31-2.33Zm.17.77c.63.03 1.27.02 1.9 0-.15-.37-.4-.76-.85-.74-.5-.08-.89.3-1.05.74Zm9.63-.98c.61-.46 1.6-.4 2.09.21.31.36.25.87.3 1.31-.8.01-1.6 0-2.42.03.3.82 1.32.87 1.93.37l.33.44c-.6.43-1.45.61-2.11.2-.94-.48-.97-1.99-.12-2.56Zm-.02.98c.21-.97 1.69-.98 1.9-.01-.63.04-1.27.03-1.9.01Zm5.65-.92c.69-.49 1.94-.7 2.37.22.19.8.05 1.63.09 2.45h-.63l.03-.32c-.48.33-1.13.54-1.66.22-.55-.26-.61-1.2-.05-1.47.55-.25 1.17-.2 1.76-.24-.09-.87-1.07-.78-1.64-.45l-.27-.41Zm.43 1.92c-.22-.85.92-.63 1.43-.64.09.75-.95 1.16-1.43.64Zm2.94-2.28h.62v3.03h-.62v-3.03Zm7.66 0h.64l-.06.54c.3-.26.65-.46 1.03-.61l-.03.61c-.27.12-.63.16-.76.46-.34.62-.15 1.36-.2 2.03h-.62v-3.03Zm2.96.08c.86-.4 2.05.1 2.22 1.07.27 1.01-.69 2.17-1.75 1.9-.77-.03-1.38-.77-1.35-1.51-.05-.62.34-1.19.88-1.46Zm.19.56c-.66.36-.63 1.41.04 1.74.6.4 1.46-.14 1.45-.84.1-.75-.89-1.27-1.5-.9Zm2.86-.64h.63l-.04.55c.43-.72 1.49-.82 1.97-.1.55-.57 1.65-.75 2.1.04.36.79.11 1.7.18 2.54h-.62c-.02-.69.06-1.38-.07-2.06-.23-.64-1.37-.45-1.44.2-.06.63-.01 1.27-.02 1.9h-.62c-.03-.7.06-1.4-.07-2.1-.2-.52-1-.42-1.27-.01-.14.68-.05 1.38-.07 2.07h-.66v-3.03Zm8.41.17c.57-.33 1.27-.12 1.72.3l-.04-.47h.68c-.03 1.03.05 2.06-.04 3.08-.07.74-.81 1.24-1.51 1.2-.46.04-.87-.2-1.28-.37l.27-.5c.47.17 1.02.47 1.5.16.4-.22.36-.73.46-1.12-.48.32-1.1.7-1.67.36-.97-.52-1-2.06-.09-2.64Zm.44.4c-.58.38-.58 1.34.04 1.67.5.35 1.25-.1 1.25-.7.13-.66-.68-1.35-1.29-.96Zm5.24-.49c1.06-.54 2.5.43 2.25 1.65-.12 1.14-1.52 1.73-2.45 1.1-.99-.62-.87-2.27.2-2.75Zm.18.57c-.65.36-.6 1.4.05 1.73.6.4 1.47-.14 1.45-.83.11-.76-.9-1.29-1.5-.9Zm6.8-.3c.66-.44 1.78-.7 2.3.1.3.81.09 1.72.15 2.57l-.6.02-.02-.33c-.46.34-1.1.54-1.62.22-.57-.25-.63-1.24-.03-1.49.54-.22 1.15-.18 1.73-.22-.09-.87-1.08-.78-1.64-.45l-.28-.42Zm.37 1.8c.04-.76.99-.46 1.5-.5.09.77-1.16 1.22-1.5.5Z"/>
  </g>
</svg>
