<svg xmlns="http://www.w3.org/2000/svg" viewBox="0 0 110 24" width="170" height="37">
  <g fill="none" fill-rule="nonzero">
    <path fill="#E2011A" d="M79.53 10V0h7.51c2.36 0 4.63.47 6.42 1.3h4.76c2.62 0 5.21.64 6.94 1.76 3.75 2.35 4.84 6.42 4.84 9 0 2-.78 6.27-4.84 8.88-1.73 1.13-4.32 1.76-6.94 1.76h-4.76c-1.8.84-4.06 1.3-6.42 1.3h-7.51v-9H84v5h5v-5h5v-5h-5V5h-5v5h-4.47Zm16.8-6.76a12.22 12.22 0 0 1 3.78 8.82c0 .95-.2 5.4-3.79 8.7h.9c1.92 0 4.86 0 7.3-1.73a9.03 9.03 0 0 0 3.35-7.06 8.83 8.83 0 0 0-3.63-7.09c-1.9-1.24-3.89-1.64-7.03-1.64h-.87ZM44.3 1.3h2.01v7.66h.06a7.39 7.39 0 0 1 6.13-3.18 8.28 8.28 0 0 1 8.47 8.27 8.26 8.26 0 0 1-8.47 8.33 7.39 7.39 0 0 1-6.13-3.15h-.06V22H44.3V1.3Zm8.2 6.3a6.4 6.4 0 0 0-6.3 6.5c0 3.71 2.9 6.46 6.3 6.46 3.86 0 6.46-2.9 6.46-6.42 0-4.02-3-6.54-6.46-6.54Zm12.07 7.23c.14 3.1 3.03 5.73 6.1 5.73a5.98 5.98 0 0 0 5.65-3.73h2.13a8.25 8.25 0 0 1-7.75 5.55c-4.4 0-8.2-3.59-8.2-8.27 0-4.48 3.6-8.24 8.18-8.33a8.18 8.18 0 0 1 7.02 4.05 8.36 8.36 0 0 1 1.21 5H64.57Zm12.3-1.82A6.27 6.27 0 0 0 70.7 7.6a6.22 6.22 0 0 0-6.13 5.4h12.3Z"/>
    <path fill="#1A171B" d="M2.07 14.83a6.27 6.27 0 0 0 6.11 5.73 5.98 5.98 0 0 0 5.65-3.73h2.13a8.25 8.25 0 0 1-7.75 5.55C3.8 22.38 0 18.79 0 14.11c0-4.48 3.6-8.24 8.18-8.33a8.18 8.18 0 0 1 7.03 4.05 8.35 8.35 0 0 1 1.2 5H2.08Zm12.3-1.82A6.27 6.27 0 0 0 8.21 7.6 6.22 6.22 0 0 0 2.07 13h12.3Zm4-6.83h2.02v1.83l-.06-.06V8h.06c.9-1.57 2.82-2.23 4.3-2.23 1.32 0 4.11.6 5.3 3.03 1.17-2.43 3.97-3.03 5.3-3.03 2.41 0 6.3 1.44 6.3 6.82V22h-2.02v-9.16a6.1 6.1 0 0 0-.72-3.3 3.97 3.97 0 0 0-3.57-1.94c-1.7 0-2.9.81-3.57 1.94a6.1 6.1 0 0 0-.72 3.3V22h-2.02v-9.16a6.1 6.1 0 0 0-.72-3.3 3.97 3.97 0 0 0-3.57-1.94c-1.7 0-2.9.81-3.57 1.94a6.1 6.1 0 0 0-.72 3.3V22h-2.02V6.18Z"/>
  </g>
</svg>
