<svg xmlns="http://www.w3.org/2000/svg" viewBox="0 0 130 40">
  <defs>
    <linearGradient id="a" x1="50%" x2="50%" y1="468.99%" y2="1.06%">
      <stop offset="0%" stop-color="#EF7F21"/>
      <stop offset="100%" stop-color="#FABE11"/>
    </linearGradient>
    <linearGradient id="b" x1="50%" x2="50%" y1="385.42%" y2="-76.91%">
      <stop offset="0%" stop-color="#EF7F21"/>
      <stop offset="100%" stop-color="#FABE11"/>
    </linearGradient>
    <linearGradient id="c" x1="50%" x2="50%" y1="313.59%" y2="-209.25%">
      <stop offset="0%" stop-color="#EF7F21"/>
      <stop offset="100%" stop-color="#FABE11"/>
    </linearGradient>
    <linearGradient id="d" x1="50%" x2="50%" y1="102.82%" y2="-365.07%">
      <stop offset="0%" stop-color="#EF7F21"/>
      <stop offset="100%" stop-color="#FABE11"/>
    </linearGradient>
    <linearGradient id="e" x1="50%" x2="50%" y1="180.74%" y2="-281.54%">
      <stop offset="0%" stop-color="#EF7F21"/>
      <stop offset="100%" stop-color="#FABE11"/>
    </linearGradient>
    <linearGradient id="f" x1="50%" x2="50%" y1="100.16%" y2="52.51%">
      <stop offset="0%" stop-color="#1784B1"/>
      <stop offset="100%" stop-color="#0EA8DE"/>
    </linearGradient>
    <linearGradient id="g" x1="7.93%" x2="90.67%" y1="50%" y2="50%">
      <stop offset="0%" stop-color="#FFF"/>
      <stop offset="100%" stop-color="#ADABAC"/>
    </linearGradient>
  </defs>
  <g fill="none" fill-rule="nonzero">
    <path fill="url(#a)" d="M32.58 4.67 18.6 7.71l-3.69 3.61 20.26-3.77z"/>
    <path fill="url(#b)" d="m37.26 9.92-24.1 3.12-3.69 3.62 31.62-2.47z"/>
    <path fill="url(#c)" d="M43.7 17.21 7.71 18.38l-1.92 2.07 1.92 1.12 36.02 1.87 2.85-2.99z"/>
    <path fill="url(#d)" d="m18.6 32.24 13.98 3.04 2.59-2.82-20.26-3.84z"/>
    <path fill="url(#e)" d="m13.16 26.9 24.1 3.35 3.83-4.06-31.62-2.91z"/>
    <path fill="#0EA8DE" d="M55.51 30.37V11.05h13.8v2.43H57.96v6.02h8.87v2.42h-8.87v6.05h11.35v2.4H55.5Zm28.3-16.12a4.1 4.1 0 0 0-2.51-.77h-5.91v6.02h5.9c1 0 1.84-.27 2.51-.8a2.69 2.69 0 0 0 0-4.45Zm2.7 16.12-4.48-6.76c-.75-1.12-1.98-1.68-3.69-1.68h-2.95v8.44h-2.45V11.05h8.36c1.63 0 3.06.5 4.27 1.49a5.03 5.03 0 0 1 .63 7.26A6 6 0 0 1 83 21.7c.47.04 1.12.67 1.95 1.9l4.47 6.77H86.5Zm17.34-14.77a7.2 7.2 0 0 0-5.24-2.12h-4.93v14.5h4.93a7.34 7.34 0 0 0 7.4-7.27 6.9 6.9 0 0 0-2.16-5.1Zm1.71 11.96a9.56 9.56 0 0 1-6.95 2.81h-7.38V11.05h7.38c2.72 0 5.04.95 6.95 2.84a9.2 9.2 0 0 1 2.9 6.82c0 2.67-.96 4.95-2.9 6.85Zm6.3-11.4h2.46v14.21h-2.45v-14.2Zm0-5.11h2.46v2.92h-2.45v-2.92Zm6.12 19.32V11.05h2.44v16.92h8.87v2.4h-11.31Z"/>
    <path fill="url(#f)" d="m0 20.45 20.85 19.46 6.22-5.78-14.93-13.68L27.07 5.8 20.85 0z"/>
    <path fill="url(#g)" d="m12.14 20.45 14.93 13.67V5.8z"/>
  </g>
</svg>
