<svg xmlns="http://www.w3.org/2000/svg" viewBox="0 0 69 80" width="69" height="80">
  <path fill="#266CF3" fill-rule="nonzero" d="M67.67 37.5c.16 1.02.21 2.08.61 3.04v.59c-1.31.07-2.6.38-3.9.56-.13.7-.06 1.44-.23 2.14-.22 1.37-.5 2.72-.72 4.09-.46 1.8-.85 3.62-1.42 5.4a48.57 48.57 0 0 1-3.96 9.56 39.35 39.35 0 0 1-7.53 9.94 27.81 27.81 0 0 1-9.22 5.88c-.97.3-1.92.7-2.92.85-.34.15-.67.32-1.01.45h-5.88c-.64-.2-1.3-.26-1.96-.4-1.13-.18-2.18-.63-3.27-.98a25.25 25.25 0 0 1-6.97-4.28 25.01 25.01 0 0 1-3.52-3.5 40.92 40.92 0 0 1-3.82-5.17A51.75 51.75 0 0 1 5.81 51.3c-.42-1.8-.97-3.57-1.2-5.4-.23-1.4-.57-2.78-.6-4.2-1.34-.16-2.66-.48-4.01-.57v-.72c.37-1.14.44-2.34.63-3.52.33-1.92.65-3.84.88-5.77.27-1.56.52-3.12.77-4.69.06-.66.17-1.33.34-1.98 1.05 0 2.08.3 3.14.32.55.21 1.16.04 1.7.28.51.19 1.07 0 1.59.16.53.17 1.11-.05 1.62.2.33.1.79.26 1.05-.06.04-.5-.53-.68-.82-1-.02-.4-.03-.81.02-1.22.07-.27.18-.54.15-.83a2.5 2.5 0 0 1 .38-1.37c.2-.18.42-.34.63-.5.61.57.56 1.46.82 2.2.3.38.76.56 1.09.9.3.24.39.64.46 1 .1.5.3.95.47 1.42.47 0 .96-.07 1.42.09.85.28 1.75.03 2.6.22.77.14 1.55.02 2.32.07.69.29 1.44.1 2.17.2.42.06.84-.05 1.25-.11a9.04 9.04 0 0 1-1.8-.52c-1.24-.65-2.68-.74-3.94-1.36-.4-.27-.55-.79-.83-1.17-.4-.82-.84-1.6-1.34-2.35-.61-.8-1.2-1.61-1.79-2.43.8-1.2 1.68-2.35 2.52-3.53.28-.54.64-1.06 1.2-1.37.12.19.2.4.08.62-.2.53-.25 1.1-.48 1.62.68.78 1.62 1.27 2.27 2.07.06.37-.05.75-.02 1.13.04.63-.23 1.22-.21 1.85 0 .31-.02.62-.06.93.87.59 1.73 1.19 2.64 1.7.47.3 1 .56 1.33 1.03.49.69 1.02 1.35 1.42 2.09 2.08.02 4.15 0 6.22 0 3.62-.02 7.23.04 10.85 0 1.37-.53 2.9.05 4.29-.4.8-.06 1.63.09 2.43-.09.8-.2 1.67.1 2.47-.2.68-.25 1.45.06 2.12-.23.46-.18.95-.09 1.43-.13-.74-1.02-1.39-2.11-2.13-3.13-.32-.36-.11-.88-.26-1.3-.2-.65.04-1.34-.18-1.98-.1-.28-.05-.57-.04-.85 1.36.69 2.13 2.12 3.41 2.92.97.7 1.57 1.95 2.81 2.23l2.88 1.23c.17.08.36.1.54.07 1.01-.13 2.03-.21 3.03-.38.11.4.21.8.28 1.21.23 2.03.64 4.03.95 6.05.26 1.92.61 3.83.9 5.74Zm-4.36 6.3c.22-.64.03-1.35.28-1.99-.64.1-1.32.04-1.95.23-.41.1-.86 0-1.26.17-.57.24-1.21.02-1.8.2-.63.17-1.3-.04-1.9.2-.59.24-1.24-.02-1.84.17-.77.29-1.62-.04-2.38.25-.83.32-1.8-.15-2.6.28-1.02.29-2.15-.1-3.18.24-1.23.02-2.45-.01-3.67.02-.29-.01-.5.23-.79.23-5.43-.02-10.85 0-16.28-.01l-.54-.21c-1.26-.05-2.53 0-3.8-.03-1.02-.35-2.16.05-3.18-.24-.8-.43-1.77.04-2.6-.28-.76-.3-1.6.04-2.37-.25-.6-.19-1.26.07-1.85-.16-.6-.25-1.27-.04-1.89-.21-.6-.18-1.23.04-1.81-.2-.44-.18-.93-.05-1.37-.2-.55-.18-1.13-.08-1.7-.06a4.5 4.5 0 0 0 .21 1.53c.03.77.21 1.53.4 2.28.35 2.35.94 4.67 1.6 6.96.3.74.4 1.58.82 2.27.2.71.5 1.4.75 2.1.66 1.5 1.23 3.03 2.01 4.48.29.47.44 1.02.78 1.46.33.41.46.94.77 1.36.42.53.64 1.19 1.08 1.7.32.4.5.88.85 1.26.38.4.59.9.93 1.33.18.22.41.39.56.63.32.59.92.95 1.28 1.5.3.52.79.89 1.2 1.32.43.4.8.9 1.33 1.2.37.23.62.61 1 .83.42.23.68.66 1.1.9.92.58 1.77 1.28 2.79 1.69.58.24 1.09.64 1.7.82.58.17 1.1.51 1.68.67.77.32 1.63.34 2.4.64.41 0 .82.01 1.17.23 1.58.04 3.17.01 4.76.02.33.03.6-.26.92-.23.56.06 1.05-.27 1.6-.31 1.13-.17 2.14-.74 3.25-1.03a31.52 31.52 0 0 0 5.13-2.93c.49-.45 1.05-.8 1.6-1.2.39-.35.73-.79 1.2-1.05a14.6 14.6 0 0 0 1.78-1.77c.33-.61.93-1.01 1.38-1.54.69-.98 1.43-1.92 2.13-2.9.37-.47.62-1.02 1-1.48.77-1.4 1.66-2.75 2.3-4.22.27-.51.6-1 .7-1.59 1-1.96 1.64-4.09 2.34-6.17l.02-.3c.23-.3.31-.66.39-1.02.24-1.1.63-2.18.8-3.3.2-1 .34-2.02.59-3.01.12-.42.04-.87.18-1.28Zm2.79-3.17c.42-.23.91-.1 1.37-.15-.03-.3-.19-.56-.28-.84-.04-.39.09-.82-.13-1.18.02-1.39-.36-2.75-.56-4.12 0-.4-.1-.8-.18-1.2-.35-2.05-.59-4.1-1-6.14a6.79 6.79 0 0 0-.3-1.73c-.96-.05-1.9.26-2.83.4-1.28.03-2.52.45-3.8.45-.69.2-1.4.14-2.1.24-.68.25-1.43.02-2.13.24-.6.23-1.23.05-1.84.18-.84.23-1.72.01-2.56.2-.98.24-2 .05-2.98.17l-.15.2c-1.19.1-2.38 0-3.57.07-1.1.54-2.34-.05-3.5.2-4.58.04-9.17 0-13.77.02-.32.01-.58-.26-.91-.24h-2.79c-.29.03-.52-.16-.8-.23-.84-.08-1.7.05-2.55-.07-.85-.26-1.79.11-2.61-.26-.59-.16-1.2-.02-1.8-.1-.64-.31-1.39-.04-2.05-.2-.64-.42-1.44 0-2.12-.29-.49-.17-1.05.12-1.51-.16-.42-.27-.94 0-1.37-.21-.44-.21-.97.04-1.4-.19-.49-.3-1.09.01-1.58-.27-.32-.11-.9-.3-1.03.17-.31.47 0 1.07-.3 1.54-.18.32-.1.7 0 1.01-.5.44-.07 1.14-.44 1.63-.17.32.01.71-.12 1.05-.17.39-.06.8-.1 1.2-.08.25-.26.47-.24.74-.01.22.06.47-.07.68-.23.38.03.86-.2 1.23-.29.4 0 .91-.27 1.32-.19.31-.09.66-.03 1a2.6 2.6 0 0 0-.23 1.3c-.2.37-.17.79-.2 1.2-.16.31-.26.65-.22 1 .45.05.94-.09 1.35.14.44.23.95 0 1.4.18.45.18.95-.05 1.38.19.3.15.65.16.98.07.39-.14.67.29 1.05.23.38.04.8-.1 1.14.1.52.31 1.14.01 1.7.2.6.24 1.29-.1 1.87.2.5.26 1.1.07 1.62.1.7.36 1.52.14 2.28.2.75.43 1.65.16 2.48.24.97.29 2 .06 3 .16.7.31 1.46.21 2.2.23.79-.03 1.6.1 2.39-.1.2.11.38.32.64.27h15.62c.26.05.45-.16.65-.28.87.21 1.77.08 2.66.11.64 0 1.31.04 1.92-.22.71-.08 1.45.03 2.17-.04.85-.3 1.77 0 2.63-.18.83-.52 1.93.17 2.7-.43.43.1.87.08 1.31.07.33 0 .6-.28.93-.25.5-.01 1.03.08 1.52-.08.55-.18 1.18.1 1.69-.2.5-.27 1.13.08 1.62-.22.45-.31 1 .13 1.46-.15.46-.27 1-.05 1.47-.22.46-.17.97.05 1.42-.18ZM35.37 6.49c-.52-.64-1.15-1.2-1.74-1.76.28-.53.11-1.13.2-1.69.28-.54.01-1.17.23-1.72.15-.4.11-.82.13-1.23.17-.15.43-.05.64-.09.4.89 1.31 1.37 1.8 2.2.3.5.83.79 1.11 1.3.43.6 1.1 1.03 1.48 1.68.28.47.77.75 1.06 1.2.4.7 1.13 1.1 1.53 1.78.33.57.93.91 1.3 1.46.22.33.52.6.72.94-.38.26-.76.04-1.13-.1-.58.04-1.07-.35-1.66-.27-.84-.24-1.74-.24-2.58-.53-.27-.02-.55-.01-.8-.14-.34-.2-.75-.08-1.13-.14-.27-.2-.3-.55-.43-.83-.23-.69-.52-1.36-.73-2.06ZM25.8 8.55c-.24-.38-.09-.86-.32-1.24-.01-.43-.08-.88.1-1.28.35.13.68.35.86.68.74 1.02 1.4 2.1 2.26 3.03.33.55.83.96 1.16 1.5 1.26 1.3 2.54 2.57 3.83 3.83.92.33 1.85.64 2.77.94.37.6.36 1.33.55 1.99a17 17 0 0 1 .65 2.25c.6.74 1.47 1.18 2.18 1.79.5.4 1.09.68 1.54 1.13.57.37 1.26.52 1.78.97.57.34 1.21.54 1.73.95-.3.18-.7.25-1.03.07-.4-.23-.87-.12-1.28-.33-.82-.12-1.63-.34-2.47-.4-.39-.13-.76-.28-1.18-.25a2.17 2.17 0 0 0-1.05-.24c-.76-.29-1.6-.2-2.34-.5-.23-.05-.46-.02-.69-.07-.2-.08-.36-.23-.58-.2l-4.3-.01c-.05-1.02-.12-2.04-.1-3.06-.53-.23-.9-.68-1.3-1.08-.33-.32-.79-.46-1.05-.84-.1-.92-.44-1.8-.44-2.73-.2-.4-.07-.88-.29-1.28-.21-.38.04-.86-.22-1.22a9.83 9.83 0 0 1-.3-1.99c-.2-.37-.06-.8-.27-1.17-.23-.38.02-.86-.2-1.24Zm20.36 6.12c-.28-.22-.83-.26-.84-.7 0-1.6-.02-3.2.02-4.81.2-.02.43-.1.64-.02 1.23 1.2 2.4 2.46 3.65 3.64.28.26.42.63.68.91 1.05 1.09 2.14 2.14 3.2 3.22.22.55-.62.46-.93.35-.51-.34-1.16-.03-1.69-.32-.67-.02-1.43-.06-1.94-.57-.94-.54-1.9-1.06-2.79-1.7ZM15.2 30.1c-.08.42-.15.85-.2 1.27-.78.06-1.54-.16-2.32-.15a4.38 4.38 0 0 0-.28 2.1l.28.02c.45.12 1.05-.17 1.38.2.08.56.03 1.12-.37 1.56a3.45 3.45 0 0 0-1.68-.3c-.06.66-.24 1.3-.31 1.95.8.47 1.78.22 2.59.7-.04.3-.08.62-.18.93l-.16.38c-.31-.02-.64.03-.92-.11-1-.33-2.07-.3-3.08-.55.05-1.08.38-2.13.45-3.21.32-1.38.42-2.8.71-4.18.08-.4-.03-.85.2-1.2.26-.07.53.02.8.05.82.1 1.64.2 2.47.24l.1.05.52.25ZM58 36.74c-.03.47.04.9.22 1.33-.49.45-1.16.25-1.75.3-.44-.65-.78-1.36-1.12-2.06-.47-.75-.67-1.67-1.33-2.3.34 1.52.41 3.08.74 4.6-.54.06-1.08.17-1.6.32-.04-.54-.06-1.08-.18-1.6-.1-.47-.06-.96-.23-1.4-.33-.55.06-1.25-.3-1.78-.25-.5.1-1.12-.22-1.61-.13-.45.04-.93-.1-1.37-.13-.4-.08-.82-.06-1.24.52-.06 1.12.15 1.58-.2.35.32.34.82.55 1.22.53 1 1.09 2.02 1.38 3.12l.05.34.36.02c-.05-.22-.1-.44-.17-.65-.34-.42-.1-.97-.27-1.44-.15-.5.06-1.03-.2-1.5-.18-.34-.1-.76-.1-1.14.16-.26.46-.15.7-.18.25 0 .47-.13.7-.2.08.32.2.62.3.92.04.42-.08.87.17 1.24.2.35-.03.8.18 1.14.17.32.02.7.14 1.03.15.47.17.95.18 1.43.27.53.02 1.16.37 1.66Zm-38.82-6.32c.57 0 1.14.11 1.71.15l.08.2c-.35.6-.57 1.27-1.02 1.8-.32.66-.63 1.32-.99 1.96-.24.36 0 .79.12 1.16.06.7.52 1.28.59 1.98.05.64.46 1.2.5 1.83-.48-.16-.99-.2-1.5-.18-.39.05-.47-.42-.48-.7-.14-.6-.4-1.18-.45-1.8l-.18.14c-.36.69-.7 1.39-1.01 2.1-.62-.04-1.25.03-1.84-.18.1-.38.32-.72.53-1.05.4-.63.67-1.33 1.1-1.94.22-.46.58-.88.57-1.4.04-.55-.3-1.02-.33-1.55-.26-.92-.55-1.83-.8-2.76.57-.02 1.14-.02 1.7 0 .15.25.26.53.3.82.07.61.31 1.19.32 1.8.15-.32.36-.62.43-.97.1-.52.47-.92.65-1.4ZM51.7 35.6c.38.62.18 1.37.22 2.06-.17.37-.35.73-.55 1.08-.25.28-.65.36-.96.55-.52.06-1.05.04-1.58.03a2.52 2.52 0 0 1-1.5-1.4c-.02-.5.07-1.02-.18-1.49 0-.79 0-1.59-.2-2.35a39.6 39.6 0 0 1-.02-2.26c.18-.53.56-.98 1.03-1.27.29-.22.67-.12 1-.15.5.04 1.06-.11 1.47.23.42.4.87.84.92 1.44.17.56.2 1.13.17 1.71.28.57.11 1.22.18 1.82Zm-1.49 1.67c-.03-.47.09-.96-.13-1.4-.29-.59.08-1.3-.24-1.89-.27-.5-.02-1.1-.17-1.65-.14-.2-.27-.53-.57-.45-.27-.02-.41.26-.61.4 0 .35-.07.71.04 1.05.42.66.05 1.49.27 2.2.19.56 0 1.16.12 1.73.1.33.47.43.73.62.2-.2.42-.37.56-.61Zm-26.38-6.55c.96.08 1.78.77 2.16 1.64v2.26c-.15.38-.34.74-.55 1.09-.22.33-.61.45-.93.65-.4.31-.93.15-1.4.17-.1.26-.23.5-.3.77-.04.77.03 1.55-.03 2.32l-.26.24a2.44 2.44 0 0 0-1.43-.3c0-.73-.09-1.47.09-2.17.16-.76-.16-1.6.2-2.3.06-.6-.05-1.2.05-1.78.4-.75.13-1.62.22-2.43l.18-.15c.67-.02 1.33 0 2 0Zm.69 2.7c.12-.45-.3-.7-.56-.98h-.73c-.25.76-.02 1.57-.18 2.35.41.01.83.02 1.21-.15-.03-.43.12-.83.26-1.23Zm21.84 3.23c.1.69.01 1.38.05 2.06.09.28.23.54.26.84-.33.03-.68-.05-.96.16-.24.18-.54.1-.79-.01 0-.4.07-.81-.18-1.15-.21-.95.17-2-.23-2.92-.05-.87.08-1.75-.11-2.6-.07-.74-.02-1.48-.03-2.22.42-.13.86-.08 1.3-.08.23.14.15.42.18.65.45.82.15 1.78.24 2.66.4.81 0 1.77.27 2.62Zm-15.59-5.4c.23.36.07.83.1 1.23l-.17.19c-.77.04-1.54 0-2.31.02 0 .67.02 1.33-.02 2 .58.17 1.2.07 1.79.08-.07.53-.17 1.06-.2 1.6h-1.74c.03.68.03 1.35 0 2.03.8.02 1.62-.03 2.43.03.02.57.03 1.14 0 1.71-1.36-.27-2.75-.1-4.12-.16-.22-.97-.06-1.97-.01-2.95.04-.16.17-.29.16-.46V32.9c.38-.58.2-1.27.25-1.92.7.04 1.43-.12 2.09.15.58.08 1.2-.12 1.75.13Zm12.78-.27c.17.45.04.97.07 1.45-.48.1-1.08-.16-1.46.17v1.08c.07.27.26.5.24.8v2.77c-.05.34.28.58.25.92-.02.6.07 1.22-.1 1.81h-1.6v-.12c-.06-1.18.13-2.39-.2-3.55-.12-1.2 0-2.42-.06-3.63-.42 0-.84.02-1.26 0-.3-.17-.12-.53-.25-.78-.08-.19-.14-.4-.08-.6.22-.15.42-.38.72-.33 1.24 0 2.48-.02 3.73 0Zm-5.2.25c.15.75 0 1.53.08 2.29.05.23.15.45.13.69v5.56c-.33.45-1.05.33-1.55.34 0-.4.04-.82-.16-1.18-.09-1.79.06-3.6-.1-5.38.03-.77-.07-1.55.07-2.31.5-.15 1.03-.15 1.52 0Zm-3.8.03c.58.36 1.06.88 1.38 1.5.02 2.02.03 4.05 0 6.09-.42.3-.74.7-1.1 1.05-.37.2-.8.23-1.22.23-.73-.01-1.47 0-2.2-.02-.02-2 0-4.02 0-6.03.21-.94.1-1.9.14-2.86 1 .03 2-.06 3 .04Zm-.19 6.54v-4.26c.03-.24-.14-.42-.26-.6l-.99-.01c.02 1.82.02 3.65 0 5.47h1c.1-.2.27-.37.25-.6Zm28.02-6.16c.41.33.7.77.9 1.25.03.44.03.88 0 1.32a4.1 4.1 0 0 1-.9 1.24c-.75.25-1.62.28-2.36 0-.38-.3-.7-.68-.93-1.1-.04-.53-.04-1.07 0-1.6.3-.67.88-1.2 1.6-1.36.58-.15 1.16.04 1.69.25Zm-1.35 2.92c.48-.15.88-.52 1.01-1.01-.09-.33-.33-.58-.51-.86-.28 0-.61-.09-.8.17-.2.24-.6.42-.57.77.27.33.61.59.87.93Zm-54.5-3.13c.83-.31 1.67.16 2.29.7.58.58.38 1.44.38 2.18a2.24 2.24 0 0 1-1.52 1.3c-.49.06-.98.04-1.46-.06-.42-.04-.62-.44-.87-.73-.88-1.13-.27-3.13 1.18-3.4Zm.75 2.99c.35-.19.58-.53.77-.87a2.6 2.6 0 0 0-.66-.84c-.53-.19-1.1.23-1.25.75 0 .56.6 1.04 1.14.96ZM18.31 47c-.53.05-1.04-.17-1.57-.16-.08.47.1 1-.17 1.42-.24.41.05.95-.2 1.37-.2.4-.11.86-.16 1.3-.3-.04-.7.12-.88-.19-.02-.45-.1-.93.12-1.34.27-.42-.03-.95.2-1.38.25-.4.11-.88.17-1.32h-.87c-.23-.24-.7-.62-.3-.93.4-.02.83-.03 1.23.1.38.1.8-.05 1.17.14.4.2.93-.11 1.25.24.02.25.01.5.01.75Zm35.16 2.33c.12.43.03.9.05 1.34-.3-.04-.73.17-.91-.16.01-.47.04-.95-.21-1.37.01-.5-.14-1.05-.65-1.27l-.62.4c.04.67-.14 1.38.17 2 .02.2 0 .39 0 .59-.3.07-.62.11-.94.13.12-.46-.2-.85-.15-1.3 0-.3.04-.6-.12-.88-.26-.41.03-.94-.2-1.36-.27-.46-.2-1.02-.08-1.52l.78-.2c.11.26.16.52.08.8-.1.37.15.7.26 1.03.14-.14.28-.28.43-.4.6-.13 1.24 0 1.69.43.34.52.11 1.2.42 1.74Zm-4.8-1.03c.32.62.18 1.31.23 1.98.32.02.64.07.95.14l-.03.78c-.41.02-.84.1-1.23-.01-.7-.55-.68-1.5-.64-2.3.03-.41-.46-.41-.74-.51-.13.7-.23 1.42-.49 2.1-.14.31-.06.66-.09 1h-.85a5.76 5.76 0 0 1-.91-2.07c-.3.6-.32 1.29-.48 1.94l-.3.38h-.55c-.27-.14-.3-.47-.42-.72-.38-.88-.67-1.79-1.06-2.66.1-.31.45-.16.7-.18.3-.02.38.33.45.56.2.52.33 1.08.6 1.57.17-.8.35-1.6.63-2.37h.72c.16.72.49 1.39.72 2.08l.24.02c-.05-.77.18-1.5.25-2.26.46-.04.91-.12 1.38-.1-.05-.34 0-.67.13-.98.25.03.49.1.72.2l.17.65.59-.01c.12.21.24.43.38.64-.34.13-.7.12-1.06.13ZM32.4 51.59c-.29-.37-.47-.8-.67-1.23 0-.44-.02-.88.01-1.32.33-.5.45-1.24 1.07-1.48.35-.16.72-.28 1.08-.42.4-.02.8-.02 1.19 0 .25.12.5.27.74.41l-.16.5h-2.1c-.24.28-.57.5-.72.84-.44.75-.19 1.89.62 2.29.44.34 1.03.15 1.54.17v-1.2c-.3 0-.58.01-.87.04l-.18-.49.17-.35c.6 0 1.22-.01 1.82.01.02.83.02 1.66.01 2.5-.74.31-1.56.15-2.34.19-.46.03-.83-.26-1.21-.46Zm-13.86-3.94c.66-.1 1.53-.13 1.9.55.37.42.3 1 .28 1.52-.19.29-.57.14-.85.15-.48-.29-1.03-.23-1.56-.23.04.24-.08.6.24.68.51.4 1.18.2 1.78.26l.02.65c-.6.01-1.22.05-1.82 0-.5-.07-.82-.5-1.1-.88a8.23 8.23 0 0 1 0-1.43c.14-.28.26-.57.4-.84.24-.15.47-.3.71-.42Zm-.28 1.3c.54.02 1.08.03 1.62.02-.07-.29-.29-.49-.48-.7-.53-.1-.84.33-1.14.68Zm3.32-1.02c.75-.02 1.62-.1 2.18.52.07 1.08.02 2.18.01 3.27a1.4 1.4 0 0 1-1.08-.26c-.2.16-.43.34-.7.27-.43-.14-.8-.4-1.14-.7.01-.4-.1-.87.2-1.22.39-.62 1.21-.54 1.84-.7-.04-.66-.98-.49-1.37-.25-.11-.17-.36-.33-.29-.56l.35-.37Zm1.36 2.6c.05-.22.02-.43.01-.64-.15 0-.32-.02-.45.09-.32.06-.79.09-.83.51-.06.36.35.5.57.67.25-.2.53-.37.7-.64Zm2.42 1.37h-.82c.01-1-.1-2.02.12-3 .04-.24-.06-.52.09-.73.35-.1.64.11.91.3.5-.6 1.33-.23 1.78.24.46-.5 1.2-.28 1.8-.23.34.42.52.94.5 1.48-.07.67-.04 1.34-.04 2.02-.29.14-.61.2-.92.07-.03-.88.03-1.76 0-2.64a9.4 9.4 0 0 1-.6-.37 12 12 0 0 1-.58.5v2.33a1.8 1.8 0 0 1-1.1.01c.08-.18.21-.37.2-.59-.02-.66.03-1.33-.03-2-.18-.31-.58-.18-.87-.2-.68.8-.13 1.9-.44 2.81Zm14.33.05c-.83-.2-1.06-1.15-1.27-1.85.21-.54.34-1.19.83-1.54.2-.19.48-.14.72-.16.45 0 .9-.02 1.34.03.57.34.84 1.02.87 1.66.19 1.25-1.33 2.43-2.5 1.86Zm-.16-2.38c.05.43-.16.97.18 1.31.28.35.86.43 1.23.18.19-.32.4-.66.32-1.05a3.1 3.1 0 0 0-.59-.94c-.48-.1-.84.16-1.14.5Zm-10.38 8.22c.07-.15.24-.21.37-.3.5-.3.95-.66 1.51-.81l.02.54.6-.22c.65.54 1.05 1.3 1.53 1.98l-.56.5c.43.7.92 1.38 1.48 1.99.4-.18.53-.64.81-.95.24-.3.42-.62.66-.9l-.46-.52c.35-.67.72-1.35 1.28-1.87.4-.1.76-.3 1.17-.33.57.2 1.04.6 1.55.92l-.4.46c.55.05 1.1.1 1.66.13l.23.28c-.48.28-.65.82-1.03 1.19-.23.25-.5.47-.73.73-.28.41-.5.87-.84 1.25-.28-.28-.56-.57-.82-.88-.31.66-.93 1.09-1.27 1.72-.08.13-.21.27-.09.42.27.34.6.64.95.9-.34.49-.88.75-1.32 1.13-.18.12-.38.31-.61.2-.23-.22-.45-.46-.69-.68-.35.22-.55.79-1.02.74-.56-.47-1.2-.85-1.67-1.42.3-.34.66-.64 1.04-.88l.05-.17c-.51-.62-1.09-1.21-1.42-1.94h-.2c-.12.34-.36.6-.62.85-.44-.4-.7-.95-1.1-1.4-.41-.69-1.2-1.07-1.53-1.82.44-.37 1-.45 1.56-.37-.04-.16-.08-.3-.09-.47Zm-.75 2.41c.29.25.53.54.72.87.32.4.85.82.74 1.39-.3.3-.58.64-.83.99-.44-.22-.93-.38-1.28-.73-.34-.33-.83-.5-1.05-.95-.34-.42-.43-.96-.7-1.42-.18-.29-.11-.66-.08-.98.36-.36.87-.65 1.4-.47.44.37.65.93 1.08 1.3Zm13.22 1.45a5.66 5.66 0 0 1-2.45 1.8 9 9 0 0 0-.72-1c-.04-.2-.02-.42-.02-.63.96-.88 1.55-2.09 2.57-2.91.51-.2 1.02.1 1.38.46.06.24.06.5-.05.72-.22.53-.35 1.11-.71 1.56Zm-5.35 3.4c.28-.25.59-.51.99-.5.6.76 1.19 1.54 1.7 2.37-.42.5-.97.86-1.51 1.2-.51.17-.73-.32-.94-.68-.48-.5-.9-1.07-1.3-1.63.35-.26.73-.47 1.06-.77Zm-3.37 1.07c-.48.36-.66.95-1.13 1.31-.27.2-.27.7-.67.71-.78-.07-1.28-.75-1.82-1.24.56-.84 1.05-1.72 1.83-2.38.68.25 1.15.83 1.77 1.18l.02.42Zm3.85 8.7c.26.2.52.43.72.7-.32.04-.64.06-.97.05-.38-.41-.27-.98-.27-1.5l-.3-.24.1-.57c.09-.27.47-.29.69-.42-.08.47.33.66.74.67l-.09.34-.62.18v.79Zm5.2-2.02c.46.29.86.76.92 1.3-.42.03-.83.08-1.24.15v.28c.4-.03.8-.07 1.2-.05v.4a2.2 2.2 0 0 1-1.47.3c-.37-.42-.74-.92-.68-1.51-.13.05-.27.1-.4.17.02.5.08.99.04 1.48h-.65c-.03-.51.09-1.05-.1-1.53-.33.42-.13.98-.18 1.48-.47.1-.9.35-1.4.31-.16-.15-.32-.3-.5-.44 0-.58 0-1.16.02-1.74l.4.05c-.02.47.17.9.3 1.34 0 .24.5.16.4-.1.02-.47-.02-.94.02-1.4.3-.02.57.07.85.18l-.05-.12c.43-.07.84-.19 1.25-.34l.2.56c.13-.47.64-.7 1.08-.77Zm-.7 1.1c.28-.08.56-.17.82-.3-.33-.23-.68-.04-.82.3Zm-6.5-.4c.26.06.53.11.76.25.38.48.4 1.12.4 1.7l-.62.09c-.03-.42.01-.84-.09-1.25-.16-.25-.48-.13-.72-.13l-.03 1.49-.46.08c-.34-.71-.1-1.54-.16-2.3a6 6 0 0 1 .92.07Zm-2.27 1.55c.46-.03.92 0 1.29.31-.26.18-.52.34-.8.48-.32-.15-.65-.28-.99-.4-.14-.47-.32-1 0-1.44.19-.5.8-.56 1.26-.57.13.21.3.4.46.59l-.02.74h-1.2v.29Zm.32-1.12c-.26-.1-.39.21-.55.36.33.02.66.02 1 0-.15-.13-.28-.27-.45-.36ZM36.6 50c-.24-.44-.12-.96-.14-1.45.34-.02.66.01 1 .05.17-.08.34-.2.53-.27.21-.03.4.1.6.15-.01.25-.05.5-.1.75l-.85.14c-.19.87-.04 1.77-.1 2.65-.3.14-.64.12-.93-.04 0-.66.03-1.32-.01-1.98Zm-5.48 23.78c.14-.2.54-.6.64-.16-.05.27-.17.51-.24.78-.05.43-.24.84-.55 1.15l-.55.02a8.75 8.75 0 0 0-.67-1.96c-.19.66.1 1.37-.18 2a2.72 2.72 0 0 0-1.36-.29c-.38.07-.44-.37-.6-.61-.02.2-.02.4-.02.62l-.48-.03-.5-.95-.6.02-.44.69a8.94 8.94 0 0 1-.5-.18l.04-.44c.46-.69.83-1.43 1.22-2.16l.61-.04c.16.67.26 1.38.59 1.99.17-.32.36-.63.59-.92.3-.02.62-.02.93-.01.02-.32.09-.62.17-.92.22.03.43.1.65.14v.75c.27.1.55.22.79.4 0 .27 0 .52.02.78.35-.03.27-.45.44-.67Zm-2.22 1c.2-.29.2-.67 0-.95-.26.04-.62-.08-.71.25-.18.22.04.48.1.7h.6Zm-2.69-.93h.55c-.05-.28-.11-.55-.19-.81-.2.23-.35.5-.36.81Z"/>
</svg>
