<svg xmlns="http://www.w3.org/2000/svg" viewBox="0 0 151 28" width="200" height="37">
  <g fill="none" fill-rule="nonzero">
    <path fill="#211F20" d="M125.64 7.94c-1.88 1.31-2.37 2.21-2.45 5.57 0 .49-.08 2.62-.08 3.85v4.17c0 .9.9 1.15 1.63 1.15h.74c.16 0 .24.16.24.24v.41c0 .17-.08.25-.24.25h-7.53c-.16 0-.24-.08-.24-.25v-.4c0-.17.08-.25.24-.25h.25c.82-.08 2.04-.16 2.04-1.15v-7.28c0-2.3-.16-6.64 5.4-6.3Zm-17.75 6.39v.08h5.73V14c0-2.46-.5-5.08-3.52-5.08-2.94 0-3.6 3.03-3.6 5.4v1.48c0 3.2.17 7.12 4.42 7.12 2.78 0 4.58-1.39 4.83-4.17 0 0 0-.16.16-.16h.65c.33 0 .25.32.25.32-.08.5-.17 1.07-.33 1.56-1.06 3.1-3.68 3.52-6.22 3.52-5.07 0-6.87-3.85-6.87-8.43 0-4.34 2.7-7.54 7.2-7.54 4.42 0 6.55 2.79 6.55 6.88 0 .5-.09.66-.5.66h-8.75c-.16 0-.24-.09-.24-.25v-.74c0-.16.08-.24.24-.24Zm-16.03 0v.08h5.8V14c0-2.46-.48-5.08-3.51-5.08-2.95 0-3.6 3.03-3.6 5.4v1.48c0 3.2.17 7.12 4.42 7.12 2.86 0 4.58-1.39 4.82-4.17 0 0 0-.16.17-.16h.65c.33 0 .25.32.25.32-.17.5-.25 1.07-.41 1.56-1.06 3.1-3.68 3.52-6.22 3.52-5.07 0-6.87-3.85-6.87-8.43 0-4.34 2.7-7.54 7.2-7.54 4.42 0 6.54 2.79 6.54 6.88 0 .5-.08.66-.49.66h-8.75c-.16 0-.25-.09-.25-.25v-.74c0-.16.17-.24.25-.24Zm-4.99 7.61c.08.08 0 .17.16.17-.98 1.39-2.45 1.8-3.92 1.8-3.28 0-3.68-1.64-3.68-4.42V6.22c0-.49.4-.9.9-.9h1.06c.49 0 .9.41.9.9v2.05h3.43c.17 0 .25.08.25.25v.65c0 .16-.08.25-.25.25H82.3v10.07c0 1.39.08 3.19 1.88 3.19.74 0 1.64-.66 2.13-1.23 0 0 .08-.08.16 0 0 .08.33.41.41.5Zm-13.58-14c2.7.08 3.93 1.31 3.93 3.36 0 1.23-.33 1.39-1.47 1.39-1.31 0-1.4-.33-1.48-1.23 0-.73 0-2.37-1.39-2.37-1.55 0-2.37 1.23-2.37 4.42v8.02c0 .9.9 1.15 1.64 1.15h.73c.17 0 .25.16.25.25v.4c0 .17-.08.25-.25.25h-7.6c-.17 0-.25-.08-.25-.25v-.4c0-.17.08-.25.25-.25h.24c.82-.08 2.05-.16 2.05-1.15v-7.28c0-2.7.08-6.47 5.72-6.3Zm-18.57 6.39v.08h5.9V14c0-2.46-.5-5.08-3.52-5.08-2.95 0-3.6 3.03-3.6 5.4v1.48c0 3.2.24 7.12 4.41 7.12 2.78 0 4.58-1.39 4.83-4.17 0 0 .08-.16.24-.16h.58c.24 0 .16.32.16.32-.08.5-.16 1.07-.33 1.56-1.06 3.1-3.68 3.52-6.21 3.52-5.07 0-6.87-3.85-6.87-8.43 0-4.34 2.61-7.54 7.11-7.54 4.42 0 6.55 2.79 6.55 6.88 0 .5-.09.66-.5.66h-8.75c-.16 0-.24-.09-.24-.25v-.74c0-.16.08-.24.24-.24Zm-17.17 8.02.57-.57c.08-.08.16-.08.24 0l.17.16c.49.5 1.3.74 2.2.74 3.85 0 4.01-4.1 4.01-7.04 0-2.87-.16-6.8-3.92-6.8-2.87 0-3.93 2.21-3.93 4.75v12.36c0 .99.98 1.15 1.8 1.15h.57c.17 0 .25.08.25.25v.4c0 .17-.16.25-.25.25h-7.52c-.17 0-.25-.08-.25-.25v-.4c0-.17.08-.25.25-.25h.16c.82-.08 2.13 0 2.13-1.15V8.52a.89.89 0 0 1 .9-.74h.98c.49 0 .9.4.9.9v1.64h.16c.98-1.89 2.78-2.46 4.83-2.46 4.74 0 6.13 3.77 6.13 7.86 0 4.75-1.71 8.1-6.95 8.1a4.85 4.85 0 0 1-3.19-1.06c-.08 0-.08 0-.16-.08-.25-.16-.17-.25-.08-.33Zm-6.06.33c.17 0 .25.08.17.33v.4c0 .17-.09.25-.25.25h-7.28c-.16 0-.24-.08-.24-.24V23c0-.17.16-.25.24-.25h1.06c.25 0 .5-.16.5-.41 0-.33-.25-.57-.41-.82l-2.87-4.42-2.94 4.42c-.25.41-.33.66-.33.82 0 .33.25.41.5.5h1.14c.16 0 .24.16.24.24v.4c0 .17-.16.25-.24.25h-5.73c-.16 0-.25-.08-.25-.24v-.41c0-.17.09-.25.25-.25h.9c.98-.08 1.3-.4 1.96-1.3l3.77-5.57-3.52-5.73c-.5-.9-.82-1.07-1.64-1.07h-.98c-.16 0-.24-.08-.24-.25v-.4c0-.17.08-.25.24-.25h8.02c.16 0 .24.08.24.25v.4c0 .17-.08.25-.24.25h-.98c-.33 0-.74 0-.82.08-.25.08-.25.33-.25.41 0 .17.17.33.25.5l2.53 4.25 2.87-4.26a.93.93 0 0 0 .24-.57c0-.33-.16-.5-.4-.5h-1.32c-.16 0-.24-.07-.24-.24v-.4c0-.17.08-.25.24-.25h5.48c.09 0 .17.08.17.24v.41c0 .17-.17.25-.25.25h-.4c-1.15.08-1.48.33-2.21 1.3l-3.44 5.08 3.76 5.65c.17.25.33.5.5.66.57.74 1.3.9 1.8.9h.4ZM4.42 14.33v-.08h5.89v-.41c0-2.46-.5-5.08-3.52-5.08-2.94 0-3.6 3.03-3.6 5.4v1.48c0 3.19.16 7.12 4.42 7.12 2.78 0 4.58-1.4 4.82-4.17 0 0 0-.17.17-.17h.65c.33 0 .25.33.25.33-.17.57-.25 1.15-.41 1.64-1.07 3.1-3.68 3.52-6.22 3.52C1.8 23.9 0 20.06 0 15.47c0-4.34 2.62-7.53 7.12-7.45 4.41 0 6.54 2.79 6.54 6.88 0 .5-.08.66-.49.66H4.42c-.17 0-.25-.09-.25-.25v-.74c0-.16.08-.24.25-.24Z"/>
    <path fill="#BDDA44" d="M144.7 6.8h3.93v-.25c0-1.47-.33-3.2-2.37-3.2-1.97 0-2.46 1.97-2.46 3.45v.9c0 2.04.16 4.58 3.03 4.58 1.88 0 3.1-.9 3.27-2.7 0 0 .08-.08.16-.08h.41c.25 0 .17.16.17.16-.09.33-.09.66-.25.98-.74 2.05-2.53 2.3-4.25 2.3-3.52 0-4.75-2.46-4.75-5.4 0-2.8 1.8-4.84 4.91-4.84 3.03 0 4.5 1.89 4.5 4.42 0 .25-.08.41-.33.41h-5.97a.18.18 0 0 1-.16-.16v-.41c0-.08.08-.16.16-.16Zm-7.6 4.75.16.16c.16.16.16.16-.25.49-.65.49-1.47.74-2.37.74-2.94 0-4.17-2.3-4.17-4.92 0-2.7 1.06-5.24 4.17-5.24 1.23 0 2.45.33 3.19 1.4V.58a.56.56 0 0 1 .57-.58h.74a.56.56 0 0 1 .57.57v10.9c0 .73 1.23.73 1.64.73.08 0 .16.08.16.16v.25c0 .09-.07.16-.16.16h-3.36a.18.18 0 0 1-.16-.16V7.2c0-1.8-.57-3.77-2.78-3.77-2.46 0-2.54 2.86-2.54 4.67 0 1.63.41 4.17 2.54 4.17.65 0 1.14-.24 1.55-.5.25-.24.41-.32.5-.24Zm-9.5-3.28c.99.16 1.48 1.56 1.48 3.11 0 1.23-.33 1.4-1.47 1.4-1.07 0-1.4-.17-1.4-1.4 0-1.55.33-2.95 1.4-3.11Z"/>
  </g>
</svg>
