<svg xmlns="http://www.w3.org/2000/svg" viewBox="0 0 69 56" width="69" height="56">
  <path fill="#C42618" fill-rule="nonzero" d="M13.1 49.64h.58c1.8.03 1.87-2.2 1.87-2.23h.38v5.25h-.38c-.21-1.77-.8-2.37-1.83-2.4h-.61v5.09h1.06c2.3 0 3.11-.5 3.53-3.73h.42v4.28H9.77v-.55h1.54V44.89h-1.4v-.56h8.1v4.06h-.31c-.52-3.65-1.61-3.5-4.58-3.5l-.01 4.75Zm-3.3.2v.53H8.56v5.53s-1.45-1.17-1.46-1.15A2.8 2.8 0 0 1 4.7 56C1.03 56 .02 52.26 0 50.06c-.01-2.4 1.25-5.85 4.7-5.85 1.78 0 2.43.93 2.4.94 0 .02 1.38-1 1.37-.97v4.2h-.32c-.42-1.77-1.47-3.75-3.45-3.75-2.82 0-2.71 4.38-2.71 5.43 0 1.14-.21 5.42 2.71 5.42.42 0 1.82-.4 2.09-1.35v-3.76H5.22v-.52H9.8Zm53.42 1.78h.42v4.28H53.18v-.56h1.34l-1.2-3.08h-3.84s-.73 1.87-.68 2.39c.06.72 1.1.69 1.25.69v.56h-2.82c-4.47 0-.47-5.3-3.88-5.59h-1.97v5.03h1.47v.56h-4.73v-.56h1.48V44.88h-1.47v-.56h5.76c2.03.08 3.25.95 3.25 2.7 0 2.5-2.63 3.04-2.63 3.04-.02.02 1.01.06 1.62.67.54.55.58 1.73.58 2.25v1.98c0 .1-.04.38.5.35.58-.11.86-1.02.85-1 .01-.02 3.57-10.31 3.55-10.3h.63l4.27 11.33h1.16V44.88H56.2v-.56H61v.56h-1.46v10.46h.14c2.3 0 3.11-.49 3.53-3.72Zm-13.48.1h3.44l-1.78-5-1.66 5Zm-6.48-2c1.47 0 1.99-1.23 1.99-2.48 0-.52-.06-2.15-1.46-2.36h-2.4v4.85h1.87Zm-10.82-4.84v4.76H33c1.8.03 1.87-2.2 1.87-2.23h.38v5.26h-.38c-.21-1.78-.8-2.38-1.83-2.4h-.61v5.08h1.06c2.3 0 3.11-.5 3.53-3.73h.42v4.28H29.1v-.55h1.54V44.88H29.3c-.42 0-1.4.03-1.47.9V55.9h-.2c-.04.01-4.17-5.96-6.36-9.09l-.01 7.53c0 .83 1.25 1.15 1.77 1.15v.41h-4.07v-.41c.53 0 1.78-.32 1.78-1.15v-8.55c-.04-.87-.87-.9-1.47-.9h-.5v-.56h3.01l5.53 8.13v-6.67c-.06-.87-1.04-.9-1.46-.9h-.31v-.56h11.81v4.07h-.31c-.52-3.65-1.62-3.51-4.6-3.51Zm36.45 0H67.4v10.45h1.48v.57h-4.72v-.57h1.49V44.88h-1.49v-.56h4.72v.56Zm-12.45-7.7H69v3.59H.01v-18l3.76-.98c-.64-1.02-.82-2.36-.31-3.14a3.12 3.12 0 0 1 2.59-1.34h.02c.1-.15.21-.3.35-.42a2.42 2.42 0 0 1 1.78-.62c1.1.04 2.34.63 3.4 1.62l1.5-2.4-.36-.32-.1-.11c-.26-.24-.4-.57-.4-.91 0-.48.48-1.02 1.5-1.12l1.4-.15c.69-.05 1.65-.45 1.65-1.2a.54.54 0 0 0-.52-.52c-.21.02-.88.46-1.13.63-.61.4-1.19.74-1.9.74-.98 0-1.77-.7-1.77-1.6 0-.29.07-.56.2-.8l.02-.02c-.24-.25-.4-.56-.48-.9-.06-.33-.04-.85.43-1.4a9.71 9.71 0 0 0 1.57-2.44l.02-.04.41-.78c.11-.17.27-.33.46-.5.32-.64.75-1.33 1.19-1.9A5.89 5.89 0 0 1 18.27.23C20-.28 22.19.1 24.1 1.24a7.33 7.33 0 0 1 3.04 3.86l.02-.08a5.17 5.17 0 0 1 4.94-3.78h34.6l-.46 1a5.91 5.91 0 0 1-5.8 3.7h-.36a5.88 5.88 0 0 1-5.63 3.54 5.89 5.89 0 0 1-5.67 3.46H38.58a3.95 3.95 0 0 1 0 1.54c.78.05 1.78.14 2.75.22 1.44.11 2.93.24 3.65.28l1.04.05c1.59.08 2.85.14 4.62.43 2.57.43 4.68 1.6 6.27 3.47.63.74 1.2 1.54 1.69 2.37.6 1 1.1 2.05 1.57 3.1h.02v.06l.4.9.16.38c.76 2 1.39 3.62 2.01 4.86 1.38-.62 3.08-.22 3.8.94l.4.68c.28.51.54.96 1.06 1.54l.82.9-1.19.28c-.48.1-.92.16-1.34.16-3.05 0-4.54-2.82-6.12-6.83v5.58c.1 1.38-.2 1.91-2.27 2.77h-.02l-1.46.56Zm-4.35-2.47c-.25.64-.03 1.52.6 2.36l4.7-1.77c.3-.12 1.15-.48 1.35-.74.05-.07.05-.22.02-.63v-9.16a29.3 29.3 0 0 0-1.1-2.25c-5.58-.67-7.06-1.29-9.93-5.96a65.68 65.68 0 0 0-2.83-.16c-.74-.04-2.17-.15-3.69-.28-1.27-.1-2.58-.21-3.39-.26-.58.6-1.38.94-2.21.94-.72 0-1.25-.22-2.2-.63l-.62-.27 1.1-.98.63.26c.48.2.76.28 1.09.28a1.7 1.7 0 0 0 1.72-1.67c0-.58-.12-.8-.17-.85h-4.73l.66-1.43h4.52c1.83 0 3.14-.65 4.03-2.03h-7.4l.67-1.43h8.29c1.87 0 3.18-.67 4.08-2.1H35.85l.66-1.43h12.76c1.76 0 3.03-.6 3.92-1.85H32.1a3.77 3.77 0 0 0-3.57 2.77l-1.2 4.29a28.5 28.5 0 0 1-.9 3.1 3.38 3.38 0 0 1 1.75 3.14 4.3 4.3 0 0 1-2.57 3.81c.32.5.48 1.06.49 1.64a3.1 3.1 0 0 1-2.65 3.04c-.19.55-.41 1.04-.69 1.47v6.14c0 .9-.73 1.65-1.64 1.65h-.21c-.37 0-1.28.07-1.7.68-.37.52-.36 1.4.02 2.54.85.21 2.18.02 2.8-.83l.21-.3h.38c1 0 2.19-.05 2.55-.42.06-.06.23-.25.2-1 0-.1 0-.77.75-1.37-.84-2.2.03-5.63.14-6.05l.14-.54.57.01c3.1.1 4.94-.5 7.08-1.19.53-.17 1.08-.35 1.67-.52.2-.06 2.64-.83 4.58-.83.17 0 1.93 0 3.7 1.15l.1.07h.01l.01.01c1.66 1.07 3.24 2.09 10.06 2.64 1.77.14 2.05 1.5 2.15 1.95v.07l.35 3.4-3.81.86c-.38.07-.65.3-.8.66Zm-1.02 2.47a3.6 3.6 0 0 1-.31-2.99c.3-.8 1-1.39 1.84-1.54l2.54-.57-.21-2.1c-.12-.54-.27-.74-.86-.8-4.87-.38-7.27-1.04-8.85-1.78.55 1.11 1.07 2.2 1.27 2.77.34.98.08 1.98-.72 2.8l-3.98 4.21h9.28Zm-16.75 0h5.5L44.73 32c.64-.66.46-1.19.4-1.36-.18-.55-.85-1.91-1.4-3L43 26.1c-1.37-.8-2.66-.78-2.67-.78h-.02c-.4 0-.82.04-1.24.1l2.56 4.23c1.02 1.47.02 2.63-.3 3.01l-.03.02-1.91 2.07H39l-.07-.01-2.71-.5a1.85 1.85 0 0 0-1.6.59c-.46.52-.57 1.33-.3 2.34Zm-.77-3.28a3.28 3.28 0 0 1 2.9-1.06h.03l2.34.43 1.43-1.54c.51-.6.48-.87.2-1.27l-.03-.04-2.85-4.7c-.8.18-1.4.37-1.41.37h-.02l-1.64.52a20.23 20.23 0 0 1-6.9 1.27h-.08c-.29 1.36-.61 3.88.14 5.03l.45.7-.76.34c-.42.19-.52.39-.54.44.02.58-.03 1.4-.6 1.99-.47.49-1.16.7-2.1.8h8.75c-.33-1.66.17-2.69.7-3.28Zm-15.51-.31c.57-.83 1.62-1.3 2.88-1.3h.21c.12 0 .21-.1.21-.22v-4.82c-.72.37-1.66.57-2.93.57h-.85l.15-.83.06-.4c.1-.53.17-.92.2-1.43-.53.24-1.1.4-1.63.48v11.54h1.48c-.46-1.51-.39-2.72.22-3.6Zm-3.13 2.34V23.88l-6.73-1.75-6.74 1.75v12.05l6.74-1.75 6.73 1.75ZM2.3 37.18h11.73l-5.86-1.53-5.87 1.53Zm2.34-17.75c-.16.25-.03 1.33.62 1.97l2.9-.75 8.17 2.12v1.42a3.66 3.66 0 0 0 1.83-.86l1.14-1.16.08 1.63.02.8c0 .71-.06 1.22-.14 1.75 1.86-.18 2.44-1.03 2.98-2.78l.15-.5h.55c.95 0 1.72-.74 1.72-1.65 0-.55-.28-1.06-.74-1.36l-1.46-.97 1.72-.32c1.26-.24 2.57-1.35 2.57-2.8 0-1.26-.6-1.66-1.55-2.2l-.54-.3.22-.58c.24-.62.69-1.93 1-3.2h-.02l.1-.33c.16-.78.27-1.52.22-2.05a6.55 6.55 0 0 0-2.36-4.53c.03 1.37-.7 2.8-1.9 3.69l.39 2.2h-.85c-.56 0-.95.3-.95.59 0 .16.06.49.13.84.1.53.23 1.19.27 1.88v.06c0 2.54-2.72 4.06-5.35 4.06h-.04c-.2 0-.59-.02-1.05-.11l-1.87 2.98.3.5c.06.08.1.14.1.16h.01l.07.11a6.23 6.23 0 0 1 .35.64l-.9 1.25c.04-.04-.4-.7-.42-.75l-.15-.22-.15-.26a7.6 7.6 0 0 0-.85-1.13c-.88-.94-1.96-1.54-2.82-1.57-.32-.01-.58.07-.75.23-.1.1-.18.22-.22.36l-.19.59-.6-.1a1.7 1.7 0 0 0-1.74.65Zm8.82-5.24c-.02.07.03.17.09.21.3.24 1.54.34 1.62.35h.05c1.95.06 4.26-1.05 4.26-2.72-.03-.58-.14-1.15-.24-1.66-.1-.45-.16-.81-.16-1.11 0-.89.63-1.62 1.55-1.9l-.28-1.6.43-.25c1.09-.63 1.77-1.91 1.58-2.99V2.5l-.05-.13-3.55 2.2-.25-.03a8.11 8.11 0 0 0-1-.07c-1.67 0-2.49.6-2.67.84l-.11.23c-.47 1.55 1.22.85 1.64 1.2.37.3-.33.94-.33.94-.18.18-.31.39-.6.39-.3 0-.54-.17-.54-.4a.6.6 0 0 0-.6-.58c-.34 0-.45.15-.65.43-.33.5-.65.9-.93 1.22-.03.04-.12.15-.11.21.02.14.25.31.4.41l.67.46-.78 1.05-.01.05c0 .1.15.23.34.23.28 0 .65-.24 1.11-.55.72-.48 1.36-.87 1.92-.87 1.06 0 1.81 1.03 1.81 2.09-.17 1.56-1.7 2.18-3.2 2.23l-1.23-.04c-.08 0-.16.08-.18.18Zm2.95-11.16-.08.1a7.54 7.54 0 0 1 2.1-.04l2.52-1.56a4.64 4.64 0 0 0-4.55 1.5Zm38.44-.36a6.4 6.4 0 0 1-1.43 1.85h7.02c1.76 0 3.03-.6 3.92-1.85h-9.51Zm-.48 5.38c1.87 0 3.19-.67 4.08-2.1h-9.55a6.53 6.53 0 0 1-1.55 2.1h7.02Zm-5.59 3.46c1.84 0 3.14-.65 4.03-2.03h-9.54c-.4.82-.91 1.5-1.51 2.03h7.02Zm1.62 5.36c-.3-.05-.58-.1-.87-.13 2.09 3.18 3.4 3.73 7.13 4.22-.27-.4-.56-.77-.85-1.11a8.76 8.76 0 0 0-5.41-2.98ZM65.34 32.3c-.31-.51-1.16-.68-1.86-.44.76 1.14 1.58 1.74 2.66 1.8-.15-.24-.3-.48-.43-.73l-.37-.63Zm-51.92-6.56v1.47l-4.5-1.17v-1.47l4.5 1.17ZM2.94 27.2v-1.47l4.5-1.17v1.47l-4.5 1.17Zm0 2.97v-1.48l4.5-1.17V29l-4.5 1.17Zm10.48-1.48v1.48L8.92 29v-1.48l4.5 1.17Zm0 2.97v1.48l-4.5-1.17v-1.48l4.5 1.17ZM2.94 33.14v-1.48l4.5-1.17v1.48l-4.5 1.17Z"/>
</svg>
