<svg xmlns="http://www.w3.org/2000/svg" viewBox="0 0 113 48">
  <g fill="none" fill-rule="nonzero">
    <path fill="#F57E44" d="M16.2.02c3.05 0 6.1.21 9.14.46.23.03.53-.03.68.2.9 1.08 1.72 2.24 2.34 3.52.85 1.8 1.25 3.78 1.6 5.74.8-.01 1.6-.01 2.41 0 .26.27.27.72.36 1.07-.16.9-1.07 1.38-1.65 1.97.27.87.63 1.7.93 2.55.1.26.07.54.08.81.01 3.85.05 7.7.03 11.54 0 .4-.08.84-.42 1.09-.38.3-.88.3-1.33.3-.7-.02-1.4.03-2.09-.04-.47-.04-.96 0-1.41-.17a1.5 1.5 0 0 1-.65-.88c-.06-.6 0-1.23-.03-1.85H9.48c-.97.02-1.94-.02-2.91.02.05.7.07 1.44-.19 2.11a.9.9 0 0 1-.74.6 13 13 0 0 1-3.66.02 1.67 1.67 0 0 1-1.4-1.2C.51 23.7.48 19.5.52 15.3c.03-.32-.02-.7.21-.97.37-.44.97-.72 1.1-1.33-.09-.74-.85-1.06-1.3-1.56-.6-.47-.57-1.3-.49-2 .87.01 1.74.03 2.61 0 .17-.26.18-.6.28-.9.57-2.04 1.14-4.1 2.27-5.9.45-.73.91-1.45 1.48-2.09C7.5.4 8.38.4 9.23.3A88.6 88.6 0 0 1 16.2.02ZM9.7 21.6c-.27.21-.14.66.18.74a52.09 52.09 0 0 0 12.82.01c.3.01.6-.35.4-.63-.1-.25-.4-.2-.6-.19-1.82.23-3.64.37-5.47.36-.45.05-.91.05-1.36 0-1.83 0-3.66-.14-5.47-.36-.17 0-.37-.05-.5.07Zm15.22-6.92a2.6 2.6 0 0 0-2 2.83c.11.94.79 1.78 1.68 2.09.6.23 1.25.13 1.88.15.56-.02 1.14.07 1.68-.11a2.57 2.57 0 0 0-.95-5.02c-.76.03-1.53-.06-2.29.06Zm-20.45.04a2.57 2.57 0 0 0-.51 4.73c.88.49 1.92.24 2.88.3 1 .09 2.04-.44 2.5-1.33a2.58 2.58 0 0 0-2.5-3.8c-.79.04-1.6-.09-2.37.1Zm7.15-12.87c-1.23.1-2.48.12-3.67.42-1.28 1.72-2.5 3.58-2.98 5.7-.1.4-.07.99.33 1.2 7.2.03 14.4 0 21.6.01.26.02.62 0 .7-.3a4.5 4.5 0 0 0-.25-1.68 15.56 15.56 0 0 0-2.66-4.78c-.1-.09-.16-.25-.31-.24-4.24-.44-8.5-.56-12.76-.33Z"/>
    <path fill="#79797B" d="M46.88.53C49.45.24 52.05.1 54.64.02c3.71-.09 7.43.15 11.13.46.15.03.32 0 .42.15a17.2 17.2 0 0 1 2.5 3.8c.77 1.75 1.13 3.64 1.48 5.5h2.43c.22.29.26.72.33 1.07-.11.73-.75 1.22-1.29 1.67-.12.12-.43.2-.3.43.25.8.57 1.59.87 2.38.05.14.08.3.08.45.01 4.01.06 8.03.03 12.05.01.39-.13.81-.47 1.03-.42.3-.97.27-1.46.26-1.02 0-2.05.05-3.07-.12-.52-.06-.84-.59-.94-1.06-.03-.58 0-1.17-.01-1.75H46.79c.03.73.07 1.5-.22 2.18-.12.3-.38.5-.7.55-.95.17-1.93.16-2.9.1-.58-.05-1.23-.05-1.68-.46-.31-.3-.58-.7-.55-1.15-.02-4.2-.1-8.4-.02-12.59-.06-.62.53-.95.91-1.33.28-.25.5-.67.27-1.02-.42-.66-1.2-.98-1.58-1.67a3.3 3.3 0 0 1-.1-1.52h2.65c.65-2.41 1.27-4.89 2.64-7 .42-.66.84-1.33 1.37-1.9Zm2.96 21.4c-.25.17-.2.59.08.69.83.32 1.72.48 2.6.61 2.41.32 4.86.35 7.28.09 1.1-.13 2.2-.3 3.23-.7.42-.13.24-.85-.2-.75-2.03.67-4.18.8-6.3.82a22.77 22.77 0 0 1-5.81-.65c-.28-.05-.6-.3-.88-.1Zm15.03-7.2a2.55 2.55 0 0 0-.78 4.55c.51.37 1.16.49 1.78.45.74-.03 1.48.07 2.2-.07a2.55 2.55 0 0 0-.84-5.02c-.78.04-1.59-.08-2.36.1Zm-20.19-.03a2.55 2.55 0 0 0-.32 4.88c.5.2 1.04.15 1.56.15.5 0 .98.02 1.47 0a2.55 2.55 0 0 0-.41-5.09c-.77.03-1.54-.06-2.3.06Zm3.5-12.45c-1.23 1.68-2.42 3.46-2.94 5.5-.13.47-.18 1.07.25 1.42h21.75c.24.01.55-.09.56-.37a5 5 0 0 0-.25-1.57 15.6 15.6 0 0 0-2.85-5.02c-3.27-.34-6.56-.5-9.85-.44-2.23.05-4.47.1-6.67.48Z"/>
    <path fill="#01A9C7" d="M87.2.49C91.28.1 95.38-.12 99.48.07c2.23.1 4.47.22 6.7.46.99 1.12 1.83 2.37 2.5 3.7.82 1.8 1.23 3.76 1.55 5.7.83 0 1.66-.03 2.49 0 .16.48.45 1.06.14 1.54a5.15 5.15 0 0 1-1.5 1.46c.21.72.5 1.42.76 2.12.1.29.26.57.25.88.02 3.98.06 7.96.03 11.94.03.42-.09.9-.46 1.14-.38.28-.88.28-1.33.26-1.09-.01-2.18.06-3.25-.13-.5-.08-.76-.57-.9-1-.03-.58 0-1.18 0-1.77-2.95-.06-5.92 0-8.87-.02-3.57-.01-7.13.01-10.7-.02-.03.77.08 1.6-.3 2.3-.2.4-.68.47-1.08.51-1.11.1-2.24.11-3.34-.06-.76-.11-1.42-.84-1.35-1.62-.03-4.16-.1-8.32-.02-12.47-.07-.62.5-.96.88-1.32.28-.25.53-.67.3-1.03-.41-.69-1.25-1.01-1.6-1.75a3.76 3.76 0 0 1-.09-1.45c.9-.04 1.79 0 2.68-.02.43-1.76.93-3.5 1.63-5.17A17.68 17.68 0 0 1 86.8.68c.08-.15.25-.18.4-.2Zm-.4 21.12c-.35.14-.28.71.08.77 2.06.55 4.17.92 6.3 1.15 4.7.54 9.5.08 14.06-1.14.5-.07.41-.87-.08-.82-2.79.73-5.64 1.2-8.52 1.33-3.85.16-7.72-.33-11.45-1.3a.51.51 0 0 0-.4.01Zm17.97-6.88a2.56 2.56 0 0 0-.52 4.7c.56.33 1.22.34 1.85.32.79-.04 1.62.12 2.37-.23.9-.4 1.53-1.34 1.5-2.33.02-.97-.58-1.9-1.46-2.31-.58-.3-1.25-.26-1.88-.25-.62.02-1.26-.07-1.86.1ZM84.6 14.7a2.56 2.56 0 0 0 .6 5.05h1.9c.73 0 1.43-.3 1.93-.85.75-.82.87-2.14.26-3.07a2.63 2.63 0 0 0-2.4-1.2c-.76.03-1.53-.07-2.29.07Zm3.68-12.46c-.5.63-.95 1.3-1.37 1.97a11.3 11.3 0 0 0-1.66 3.95c-.08.4.06 1.09.59 1.02h21.53c.23.01.5-.11.54-.37a5.88 5.88 0 0 0-.4-2.01 16.08 16.08 0 0 0-2.6-4.45c-.07-.12-.2-.16-.33-.17a82.32 82.32 0 0 0-9.82-.42c-2.16.07-4.35.1-6.48.48Z"/>
    <path fill="#211F20" d="M20.85 4.23c1.28-.54 2.9.57 2.81 1.96.13 1.26-1.18 2.37-2.4 2.14-.81-.1-1.51-.72-1.74-1.49a2.14 2.14 0 0 1 1.33-2.61m40.44 0a2.13 2.13 0 0 1 2.46 3.26 2.14 2.14 0 0 1-2.49.72 2.12 2.12 0 0 1 .03-3.97m40.95-.01c1.27-.54 2.9.56 2.81 1.95.14 1.27-1.17 2.39-2.4 2.15-.81-.1-1.5-.72-1.74-1.49a2.14 2.14 0 0 1 1.33-2.6m-46.51.53c.9-.29 1.92.48 1.9 1.42.06.88-.77 1.64-1.63 1.56a1.58 1.58 0 0 1-1.28-.94c-.34-.81.14-1.83 1-2.04m34.25 0c.77-.23 1.66.3 1.84 1.08.04.38.06.78-.14 1.12-.26.47-.8.76-1.32.8a1.61 1.61 0 0 1-1.34-.8c-.2-.34-.18-.74-.14-1.12.13-.53.58-.95 1.1-1.09m6.19 0c.93-.26 1.93.57 1.86 1.53 0 .94-1.04 1.7-1.93 1.4-.79-.2-1.33-1.14-1.03-1.9.15-.52.59-.91 1.1-1.04"/>
    <path fill="#F57E44" d="M56.37 34.65c.7-.26 1.58.32 1.5 1.09.06.47-.27.9-.69 1.08-.45.13-1 .08-1.31-.32-.54-.57-.25-1.62.5-1.85"/>
    <path fill="#211F21" d="M87.1 34.62c.7-.24 1.56.25 1.57 1.01.12.7-.55 1.39-1.26 1.3-.7-.01-1.24-.74-1.08-1.4.05-.42.39-.77.77-.91"/>
    <path fill="#F57E44" d="M39.52 34.81a7.43 7.43 0 0 1 4.99.55v1.92c-1.1-.48-2.28-.99-3.52-.87-.4.05-.88.18-1.08.58-.15.42.19.79.54.97 1.32.68 2.97.9 3.95 2.12.57.7.67 1.7.43 2.54-.23.82-.9 1.45-1.68 1.77a6.43 6.43 0 0 1-5.6-.6c.02-.7 0-1.4 0-2.09 1.06.69 2.24 1.33 3.54 1.28.5-.04 1.17-.17 1.3-.75.12-.45-.22-.83-.6-1.01-1.16-.6-2.55-.8-3.55-1.7a2.79 2.79 0 0 1-.74-2.97 2.9 2.9 0 0 1 2.02-1.74"/>
    <path fill="#00AAC7" d="M7.6 34.7h2.5v4h4.95v-4h2.5v9.95h-2.5v-4.02H10.1v4.02H7.6c.01-3.32 0-6.63 0-9.94"/>
    <path fill="#F57E44" d="M46.79 34.72h2.09c.04 2.16 0 4.33.02 6.5.1-.07.19-.15.26-.25.78-1.01 1.58-2 2.36-3 .83-.02 1.65 0 2.48-.02-.88 1.1-1.76 2.2-2.61 3.31l2.73 3.37c-.87-.02-1.74 0-2.6 0-.7-.92-1.42-1.82-2.13-2.72-.16-.19-.28-.4-.5-.53v3.25h-2.1v-9.9"/>
    <path fill="#211F21" d="M68.99 34.69h4.24a5.87 5.87 0 0 1 4.2 1.37 4.73 4.73 0 0 1 1.5 3.67 4.6 4.6 0 0 1-1.52 3.64 6.04 6.04 0 0 1-3.45 1.27c-1.66.02-3.32.01-4.98.01V34.7Zm2.54 1.89v5.44c-.02.26 0 .53.04.79.76-.04 1.54.02 2.3-.07a2.77 2.77 0 0 0 1.94-1.19c.56-.86.62-1.96.38-2.93a2.63 2.63 0 0 0-1.5-1.76c-1-.44-2.1-.24-3.16-.28Z"/>
    <path fill="#00AAC7" d="M22 37.86c1.26-.2 2.66.07 3.62.95 1 .93 1.2 2.49.79 3.75a3.25 3.25 0 0 1-2.05 1.95 4.43 4.43 0 0 1-4.12-.55 3.54 3.54 0 0 1-.53-4.82 3.77 3.77 0 0 1 2.3-1.28Zm.32 1.28c-.63.22-.93.91-1 1.53-.08.75-.07 1.56.32 2.22.43.77 1.66.85 2.21.17.4-.5.48-1.16.49-1.77 0-.62-.07-1.3-.48-1.79-.36-.44-1.02-.54-1.54-.36Zm8.08-.66c.47-.33.98-.62 1.56-.66a3.04 3.04 0 0 1 2.88 1.33c.64.92.74 2.12.48 3.18-.2.83-.71 1.6-1.47 2.03-1.06.59-2.4.54-3.45-.03V48h-2.13V37.93h2.12l.01.55Zm0 1.36v3.1c.47.31 1.05.52 1.61.38.65-.12 1.1-.72 1.22-1.35a2.9 2.9 0 0 0-.26-2 1.45 1.45 0 0 0-1.34-.66c-.47 0-.87.26-1.23.53Z"/>
    <path fill="#F57E44" d="M62.03 38.48c.5-.32 1.03-.64 1.65-.65.97-.11 1.97.32 2.59 1.08.78.94.96 2.26.66 3.42-.2.9-.8 1.72-1.65 2.11a3.76 3.76 0 0 1-3.26-.11v3.65h-2.1V37.96H62l.02.52ZM62 39.84c.02 1.04 0 2.07.01 3.1.68.54 1.79.62 2.4-.05.57-.66.63-1.62.4-2.44a1.5 1.5 0 0 0-1.16-1.13c-.6-.15-1.2.14-1.65.52Z"/>
    <path fill="#211F21" d="M83.58 37.9c.72-.33 1.5.05 2.07.5l-.6 1.92c-.5-.29-1.04-.64-1.63-.46-.75.3-1.05 1.15-1.34 1.84-.07.98-.01 1.97-.03 2.95h-2.16c-.01-2.24-.01-4.49 0-6.73h2.16c.01.63-.04 1.26.04 1.9a3.4 3.4 0 0 1 1.5-1.91Zm15.72.9c1.4-1.41 4.05-1.38 5.33.19.62.73.81 1.72.79 2.65-1.62.03-3.23-.02-4.84.03.05.6.34 1.23.9 1.52.9.5 2.04.37 2.93-.11.3-.15.56-.39.88-.52v1.35c-.99.75-2.28.98-3.5.86a3.71 3.71 0 0 1-2.87-1.46 3.7 3.7 0 0 1 .38-4.51Zm2.23.36a1.4 1.4 0 0 0-.83.96c-.02.11-.17.4.05.37.9-.02 1.83.05 2.72-.03 0-.38-.2-.75-.45-1.02-.39-.38-1-.43-1.49-.28Z"/>
    <path fill="#F57E44" d="M55.7 37.95c.7.02 1.38.01 2.07 0 .07 2.23.04 4.45.03 6.68h-2.1v-6.68"/>
    <path fill="#211F21" d="M86.43 37.92h2.14v6.73h-2.14v-6.73m3.66 0c.77 0 1.55-.02 2.32.01.39 1.1.82 2.16 1.24 3.24.04.13.05.27.09.4.1-.03.1-.2.16-.27.42-1.13.9-2.24 1.3-3.37.77-.03 1.54-.01 2.31 0-1 2.29-2.07 4.56-3.08 6.85-.4.02-.83.07-1.23-.01-.87-1.8-1.66-3.64-2.5-5.45-.2-.47-.46-.91-.6-1.4"/>
  </g>
</svg>
