<svg xmlns="http://www.w3.org/2000/svg" viewBox="0 0 111 20" width="167" height="30">
  <g fill="none" fill-rule="nonzero">
    <path fill="#696464" d="M2.06 17.54A7.52 7.52 0 0 1 0 12.44V.02h3.72v12.38c0 1.02.3 1.88 1 2.6.7.71 1.53 1 2.47 1h4.9v3.68H7.17c-2.16 0-3.9-.87-5.1-2.13ZM23.59 5.29a7.29 7.29 0 0 1 3.91 4.05c.4.94.59 1.95.59 3.05a7.79 7.79 0 0 1-2.16 5.44A7.23 7.23 0 0 1 14 15.4a7.77 7.77 0 0 1-.58-3.02 7.91 7.91 0 0 1 2.15-5.49A7.21 7.21 0 0 1 23.6 5.3Zm-1.46 10.77c.43-.19.82-.46 1.14-.8.33-.35.59-.76.78-1.25.2-.5.29-1.05.28-1.6 0-.59-.1-1.13-.28-1.63a3.69 3.69 0 0 0-1.93-2.1 3.39 3.39 0 0 0-3.92.83c-.33.36-.59.8-.76 1.27a4.6 4.6 0 0 0 .76 4.48 3.56 3.56 0 0 0 3.93.8ZM75.3.56A7.03 7.03 0 0 1 79 4.33c.37.88.63 1.85.63 3.13v12.22h-3.72V7.07c0-.56-.23-1.52-.9-2.26a3.34 3.34 0 0 0-4.97 0 3.62 3.62 0 0 0-.9 2.26v12.6h-3.72V7.45a7.66 7.66 0 0 1 2.11-5.36A6.78 6.78 0 0 1 72.51 0c1.02 0 1.88.19 2.8.57Zm10.53 7.51h7.94v3.49h-7.94v.89c0 .97.29 1.69.76 2.28.66.83 1.68 1.3 2.74 1.26h5.88v3.68h-5.92a6.9 6.9 0 0 1-5.25-2.26 7.38 7.38 0 0 1-1.94-5.02V7.27A7.46 7.46 0 0 1 86.12.71c.9-.42 1.82-.7 2.83-.7h6.26v3.68h-5.88c-.99 0-1.85.32-2.51 1.01a3.66 3.66 0 0 0-1 2.49v.88Zm19.92-4.39v15.99h-3.73V3.68h-5.26V.01H111v3.67h-5.25Z"/>
    <path fill="#00A5D7" d="M47.3 2.84 45.83 4.3a7.48 7.48 0 0 0-5.27-2.2 7.25 7.25 0 0 0-5.32 2.27 7.94 7.94 0 0 0-2.22 5.65 8.01 8.01 0 0 0 2.22 5.6 7.32 7.32 0 0 0 5.32 2.24 7.33 7.33 0 0 0 4.85-1.78l1.47 1.48a9.44 9.44 0 0 1-15.16-3.57c-.5-1.21-.75-2.53-.75-3.95a10.35 10.35 0 0 1 2.8-7.17A9.16 9.16 0 0 1 40.55 0a9.5 9.5 0 0 1 6.75 2.84ZM57.82 5.3a7.27 7.27 0 0 1 3.9 4.05c.4.94.59 1.95.59 3.05a7.77 7.77 0 0 1-2.16 5.44 7.21 7.21 0 0 1-10.35 0 7.64 7.64 0 0 1-2.16-5.44 7.92 7.92 0 0 1 2.16-5.49 7.2 7.2 0 0 1 8.02-1.6Zm-.93 12.23c.6-.26 1.15-.64 1.6-1.12.47-.5.84-1.09 1.09-1.73a6.42 6.42 0 0 0 0-4.51 5.14 5.14 0 0 0-2.69-2.94 4.74 4.74 0 0 0-5.47 1.16 5.55 5.55 0 0 0-1.06 1.77c-.27.74-.4 1.5-.4 2.29 0 .81.14 1.55.4 2.23.24.64.6 1.22 1.06 1.73.44.49.98.86 1.6 1.12a5 5 0 0 0 3.87 0Z"/>
  </g>
</svg>
