<svg xmlns="http://www.w3.org/2000/svg" viewBox="0 0 100 30" width="133" height="40">
  <path fill="#0047D6" fill-rule="nonzero" d="M86.64 29.8h4.42L100 7.67h-4.38l-3.7 9.91-4-9.91h-4.93l6.57 14.84-2.9 7.29Zm-12.71-5.62h4.54V10.92h3.6V7.67h-3.6V5.65c0-1.26.6-2.18 2.05-2.18.67 0 1.23.13 1.68.29V.32A7.55 7.55 0 0 0 79.83 0c-3.66 0-5.9 1.93-5.9 5.78v1.89h-2.18v3.25h2.18v13.26Zm-8.88 0h4.55V7.67h-4.55v16.5Zm2.24-18.75c1.48 0 2.62-1.07 2.62-2.5 0-1.41-1.14-2.49-2.62-2.49a2.5 2.5 0 0 0-2.59 2.5 2.5 2.5 0 0 0 2.6 2.49Zm-15.65 19.1a6 6 0 0 0 5.3-3.1v2.75h4.55V.19h-4.54v9.94c-.92-1.67-2.56-2.84-5.21-2.84-4.14 0-7.26 3.19-7.26 8.62v.25c0 5.5 3.16 8.37 7.16 8.37ZM53 20.96c-2.27 0-3.85-1.61-3.85-4.9v-.25c0-3.28 1.42-5.01 3.98-5.01 2.5 0 3.94 1.67 3.94 4.95V16c0 3.35-1.67 4.96-4.07 4.96Zm-17.83 3.57c4.51 0 7.35-2 7.9-5.56h-4.33c-.29 1.39-1.33 2.3-3.44 2.3-2.5 0-3.98-1.57-4.1-4.32h11.9v-1.26c0-5.9-3.8-8.4-8.06-8.4-4.8 0-8.49 3.38-8.49 8.59v.25c0 5.27 3.63 8.4 8.62 8.4Zm-3.91-10.39c.34-2.33 1.73-3.7 3.78-3.7 2.18 0 3.44 1.2 3.6 3.7h-7.38ZM0 24.18h4.58V8.33l6.28 15.85h1.67l6.25-15.85v15.85h5.08V1.6h-6.63l-5.2 14.05L6.75 1.6H0v22.57Z"/>
</svg>
