<svg xmlns="http://www.w3.org/2000/svg" viewBox="0 0 107 28" width="141" height="37">
  <path fill="#E0011B" fill-rule="nonzero" d="M59 12.04v11.99c1.64.1 3.52.66 4.95-.44 1.42-1.17 1.71-3.14 1.86-4.87.04-1.86.12-3.76-.32-5.58-.2-.84-.67-1.7-1.53-1.99a5.8 5.8 0 0 0-4.95.89Zm-5.37-12h5.38v8.63a7.82 7.82 0 0 1 5.59-1.72c1.68.09 3.4.77 4.48 2.11 1.24 1.5 1.76 3.45 2 5.34.28 2.33.27 4.7-.23 7-.48 2.13-1.63 4.24-3.57 5.36-2.25 1.35-4.98 1.32-7.51 1.17a53.5 53.5 0 0 1-6.14-.8V.04Zm23 16.46c2.8-5.5 5.6-11 8.42-16.5H98.8l8.2 11.2c-2.8 5.5-5.62 10.99-8.4 16.5l-8.18-11.2H76.63ZM15.9 9.7c1.48-1.4 3.34-2.56 5.42-2.73 1.56-.14 3.31.04 4.54 1.1 1.23 1.08 1.64 2.79 1.69 4.36v15.2h-5.38v-14.5c.03-.67-.27-1.44-.98-1.6-1.65-.43-3.29.3-4.73 1.05v15.05H11.1v-14.5c0-.63-.24-1.38-.9-1.57-1.66-.48-3.38.2-4.8 1.02v15.05H0V7.32h4.5l.74 1.94c2.13-1.94 5.26-2.88 8.06-2.02a4.15 4.15 0 0 1 2.6 2.46ZM30.52 7.3h6.21c.9 4.1 1.8 8.2 2.68 12.3.32 1.63.63 3.26.87 4.9.4-1.86.67-3.76 1.08-5.62L43.9 7.3h6.2L43.5 27.64h-6.38c-2.21-6.77-4.4-13.55-6.6-20.32Z"/>
</svg>
