<svg xmlns="http://www.w3.org/2000/svg" viewBox="0 0 172 32" width="172" height="32">
  <path fill="#000" fill-rule="nonzero" d="M.03 0c.35-.05.52.3.74.5l6.06 6.37V.2h1.8c0 3.6.02 7.2 0 10.81a.87.87 0 0 1-.39-.23C6.11 8.52 3.95 6.28 1.81 4v6.77H0C.01 7.18-.04 3.6.02.01Zm70.82.1a5.43 5.43 0 0 1 4.6 1.43 5.82 5.82 0 0 1 .67 7.07 5.09 5.09 0 0 1-3.8 2.3 5.38 5.38 0 0 1-4.55-1.54 5.79 5.79 0 0 1-.43-7.16 5.12 5.12 0 0 1 3.5-2.1ZM70.7 1.8a3.2 3.2 0 0 0-1.66 1.13c-1.21 1.62-1.11 4.18.4 5.58 1.29 1.24 3.63 1.13 4.74-.3 1.3-1.64 1.2-4.33-.38-5.76a3.3 3.3 0 0 0-3.1-.65ZM13.17.2h6.46v1.66h-4.65V4.6h4.2v1.62h-4.2v2.93h4.65v1.62h-6.46V.21Zm17.1 2c.79-1 1.91-1.72 3.16-1.99a6.6 6.6 0 0 1 5.1.9l-.82 1.45a5.29 5.29 0 0 0-3.7-.8 3.5 3.5 0 0 0-2.5 1.82 4.37 4.37 0 0 0-.36 2.74 3.71 3.71 0 0 0 2.34 2.79c1.13.44 2.42.28 3.48-.28V6.76H34.5V5.18h4.23v4.65c-.85.51-1.78.93-2.77 1.08-1.47.14-3.05 0-4.3-.85a5.2 5.2 0 0 1-2.43-3.7 5.47 5.47 0 0 1 1.04-4.14ZM56.03.32C57.5.25 59-.04 60.46.36c.9.2 1.78.73 2.2 1.57.34.63.3 1.43.02 2.07-.31.66-.98 1.04-1.61 1.33.5.15 1 .38 1.4.73.66.63.86 1.62.63 2.48a3.2 3.2 0 0 1-2.19 2.07c-1.58.53-3.26.2-4.88.07V.31Zm1.78 5.77v3.2c.7.07 1.41.1 2.1-.03.55-.14 1.12-.5 1.27-1.07.22-.64-.03-1.44-.64-1.77a4.62 4.62 0 0 0-2.73-.33Zm0-4.29v2.95c.92-.01 1.98.17 2.74-.46.7-.55.63-1.77-.12-2.25-.78-.49-1.76-.32-2.62-.24ZM80.58.21h1.8l.01 6.55c.01.84.29 1.8 1.07 2.24 1 .55 2.44.46 3.22-.43.63-.78.57-1.85.56-2.8V.21h1.8v6.54c0 1.13-.32 2.32-1.16 3.12-1.03 1-2.6 1.22-3.98 1.03a3.61 3.61 0 0 1-2.78-1.8c-.56-.96-.55-2.11-.54-3.19V.21Zm12.9.1c1.92-.16 4.05-.5 5.78.56 1.51.94 1.77 3.23.69 4.59-.35.5-.88.82-1.4 1.1.92 1.4 1.85 2.8 2.77 4.22h-2.1l-2.31-3.8c-.54 0-1.08 0-1.62-.04v3.84h-1.81V.31Zm1.8 1.52v3.64c.88.04 1.84.11 2.62-.36 1-.63 1.09-2.32.06-2.97-.8-.5-1.78-.38-2.67-.3Zm26-1.67a5.57 5.57 0 0 1 4.74 1.13 5.75 5.75 0 0 1 .58 7.75 4.97 4.97 0 0 1-3.53 1.87 5.4 5.4 0 0 1-4.39-1.44 5.77 5.77 0 0 1-.23-7.64 5.2 5.2 0 0 1 2.83-1.67Zm.32 1.6a3.33 3.33 0 0 0-2.29 2.12 4.39 4.39 0 0 0 .78 4.48 3.36 3.36 0 0 0 4.75.03 4.4 4.4 0 0 0-.02-5.77 3.3 3.3 0 0 0-3.22-.85ZM134.98.25a5.66 5.66 0 0 1 4.96.95 5.76 5.76 0 0 1 1.1 7.32 5.12 5.12 0 0 1-3.72 2.38 5.46 5.46 0 0 1-4.57-1.4 5.77 5.77 0 0 1-.25-7.69 5.3 5.3 0 0 1 2.48-1.56Zm.57 1.55a3.35 3.35 0 0 0-2.24 2.28 4.37 4.37 0 0 0 .86 4.3 3.33 3.33 0 0 0 4.44.26c1.06-.89 1.43-2.36 1.28-3.69a3.7 3.7 0 0 0-1.7-2.84 3.28 3.28 0 0 0-2.64-.31ZM145.9.31c1.89-.18 3.85-.36 5.67.25a5.02 5.02 0 0 1 3.22 2.99 5.7 5.7 0 0 1-.65 5.1 5.46 5.46 0 0 1-3.4 2.07c-1.6.28-3.23.15-4.84-.01V.31Zm1.81 1.52V9.2c1.37.12 2.9.18 4.07-.65 1.01-.7 1.42-2 1.4-3.2 0-1.1-.45-2.27-1.4-2.88-1.19-.8-2.7-.82-4.07-.64ZM23.87 10.8c.03-3.54.02-7.07 0-10.61.62.03 1.23.02 1.84.01-.02 3.53-.02 7.06 0 10.58-.62 0-1.23-.01-1.84.02ZM43.02.21h1.8v4.4h4.88V.21h1.8v10.57h-1.8V6.23h-4.87v4.55h-1.81V.21Zm61.78 10.57V.21h1.81v4.4h4.87V.21h1.8v10.57h-1.8V6.23h-4.87v4.55h-1.8Zm54.4.02V.2c.6.02 1.2.02 1.81.02v10.57l-1.81.01ZM165.54.21H172v1.66h-4.65V4.6h4.2v1.62h-4.2v2.93H172v1.62h-6.46V.21ZM82.47 21.96c.82-.79 2.03-.98 3.12-.9.76.05 1.47.36 2.13.72l-.58 1.62c-.84-.62-2-1.01-3.01-.6-.75.28-1 1.36-.43 1.93 1.08 1 2.76 1.16 3.68 2.37 1.07 1.37.49 3.59-1.03 4.37-1.66.86-3.73.47-5.24-.53l.61-1.62a4.67 4.67 0 0 0 3.28.92c.96-.14 1.41-1.4.82-2.14-.74-.87-1.96-1.02-2.87-1.65-.49-.36-.97-.79-1.18-1.37a2.84 2.84 0 0 1 .7-3.12Zm12.87-.79a5.5 5.5 0 0 1 4.79 1.2 5.78 5.78 0 0 1 .83 7.25 5.39 5.39 0 0 1-3.83 2.29 5.3 5.3 0 0 1-4.74-1.8 5.8 5.8 0 0 1-.08-7.06 5.24 5.24 0 0 1 3.03-1.88Zm.3 1.6a3.3 3.3 0 0 0-2.18 1.87 4.64 4.64 0 0 0 0 3.72 3.37 3.37 0 0 0 1.96 1.82c1.32.42 2.9.01 3.72-1.14a4.47 4.47 0 0 0-.07-5.17 3.28 3.28 0 0 0-3.42-1.1Zm19.24-1.56h8.53v1.62h-3.35v8.95h-1.8v-8.91h-3.38V21.2Zm11.14 0H128l1.9 6.66c.81-1.83 1.6-3.68 2.4-5.52.2-.45.37-.92.64-1.34.1.14.18.29.26.44l2.8 6.39 1.9-6.63h1.95c-1.12 3.58-2.22 7.17-3.36 10.74l-.26.05c-1.13-2.44-2.2-4.91-3.31-7.36l-3.15 7.14c0 .25-.35.3-.4.06-1.13-3.54-2.24-7.08-3.36-10.63Zm15.1 10.58 4.9-10.75.28.12c1.63 3.53 3.22 7.09 4.84 10.63h-1.91c-.34-.8-.7-1.6-1.03-2.4H144l-1.03 2.4h-1.86Zm5-7.37-1.51 3.52h3l-1.5-3.52Zm8.24-3.1c1.7-.16 3.5-.41 5.13.22a3.01 3.01 0 0 1 1.96 2.42 3.3 3.3 0 0 1-2.02 3.57l2.77 4.25c-.71 0-1.42.02-2.12 0-.74-1.29-1.54-2.53-2.3-3.8-.53 0-1.07 0-1.61-.03v3.83h-1.81V21.32Zm1.8 1.52v3.59c.88.08 1.84.16 2.63-.31.99-.64 1.07-2.34.05-2.98-.8-.5-1.78-.39-2.67-.3Zm-50.4-1.62h6.47v1.61h-4.65v3.1h4.09v1.6h-4.1v4.25h-1.8V21.21Zm59.78 0H172v1.61h-4.65v2.79h4.2v1.58h-4.2v2.93H172v1.65h-6.46V21.21Z"/>
</svg>
