<svg xmlns="http://www.w3.org/2000/svg" viewBox="0 0 179 20" width="245" height="27">
  <g fill="none" fill-rule="nonzero">
    <path fill="#0C2340" d="m103.42.61-8.42 19h2.15l2.22-4.98h11.26l2.22 4.98H115l-8.42-19h-3.16ZM105 1.94l4.83 10.88h-9.66L105 1.94ZM0 19.28h1.98v-6.73h8.08c4.18 0 6.53-2.5 6.53-6.06 0-3.96-2.75-5.97-5.66-5.97H0v18.76ZM1.98 2.3h8.67c2.24 0 3.83 1.38 3.83 4.2 0 2.16-.94 4.29-4.24 4.29H1.98v-8.5ZM63.53 19.23h13.91v-1.78H65.52V.47h-1.99v18.76Zm16.45 0H93.9v-1.78H81.97V.47h-1.99v18.76Zm42.2 0h1.96V2.25h7.82V.47h-17.63v1.78h7.84v16.98ZM21.02 9.86c0-5.65 4-8.01 8.15-8.01 4.16 0 8.13 2.36 8.13 8.01 0 5.6-3.97 8.07-8.13 8.07-4.15 0-8.15-2.46-8.15-8.07m-2.08 0c0 6.65 4.83 9.84 10.23 9.84 5.37 0 10.26-3.19 10.3-9.84 0-6.64-4.92-9.86-10.3-9.86-5.4 0-10.23 3.22-10.23 9.86M43.64 19.23h15.02v-1.77H45.62v-6.72h11.72V8.96H45.62V2.25h13.04V.47H43.64v18.76Zm91.5 0h2v-8.49h12.91v8.5h1.99V.46h-1.99v8.49h-12.92V.46h-1.98v18.77Z"/>
    <path fill="#41B6E6" d="M178.88 8.96h-8.45V.47h-1.99v8.49h-8.46v1.78h8.46v8.49h1.99v-8.49h8.45z"/>
  </g>
</svg>
