<svg xmlns="http://www.w3.org/2000/svg" width="114" height="34">
  <g fill="#111" fill-rule="nonzero">
    <path d="M15.8 33.4c2.8.02 5.57-.73 8.02-2.16l.12-.07.12.07A18.98 18.98 0 0 0 31.4 34l.61-4.7a13.77 13.77 0 0 1-3.98-1.26l-.28-.14.2-.25c2.41-3 3.69-6.8 3.69-10.95C31.63 7.18 24.82 0 15.79 0 6.8 0 0 7.18 0 16.7s6.8 16.7 15.8 16.7Zm0-28.7c6.19 0 10.86 5.16 10.86 12 0 3.06-.96 5.93-2.7 8.1l-.17.2-.19-.2a22.76 22.76 0 0 1-4.8-7.4l-4.46 1.85a26.64 26.64 0 0 0 5.3 8.34l.27.29-.36.13c-1.2.46-2.47.7-3.75.69-6.2 0-10.87-5.16-10.87-12s4.67-12 10.86-12ZM45.5 10C38.94 10 34 15.17 34 22.02 34 28.86 38.94 34 45.5 34S57 28.85 57 22.02C57 15.17 52.06 10 45.5 10Zm0 19.2c-3.84 0-6.72-3.09-6.72-7.17 0-4.13 2.9-7.24 6.72-7.24 3.83 0 6.72 3.11 6.72 7.24 0 4.02-2.95 7.18-6.72 7.18ZM68 15.3c3.4 0 5.4 2.17 5.4 5.51V34H78V20.44c0-5.65-3.9-9.43-9.07-9.43-3.43 0-6.3 2.37-6.32 2.4V11H58v23h4.62V20.62c0-3.53 2.79-5.32 5.38-5.32ZM86.75 34a14.2 14.2 0 0 0 3.24-.42v-4.64c-.69.2-1.4.3-2.11.33-2.7 0-4.24-1.4-4.24-3.82v-9.97l6.36.02v-4.47l-6.36-.05V5H79v19.52c0 5.85 2.97 9.48 7.75 9.48ZM102.5 10C95.95 10 91 15.17 91 22.02 91 28.86 95.95 34 102.5 34S114 28.85 114 22.02c0-6.85-4.94-12.02-11.5-12.02Zm0 19.2c-3.83 0-6.72-3.09-6.72-7.17 0-4.13 2.9-7.24 6.72-7.24 3.83 0 6.73 3.11 6.73 7.24 0 4.02-2.96 7.18-6.73 7.18Z"/>
  </g>
</svg>
