<svg xmlns="http://www.w3.org/2000/svg" viewBox="0 0 146 32" width="146" height="32">
  <g fill="none" fill-rule="nonzero">
    <path fill="#4A4545" d="M96.61 10.56a6.92 6.92 0 0 1 4.37.1c.64.25 1.22.63 1.76 1.04v.12l.15-.06c-.25.23-.48.48-.68.75l-.05-.01-.09.18c-.17.18-.33.38-.49.59l-.41-.33.01-.03c-.29-.15-.57-.34-.86-.5a4.66 4.66 0 0 0-3.32-.1l-.03.1-.15-.02c-.25.19-.5.36-.77.53l.02.1-.1-.04-.17.17.04.09-.09-.01-.38.5a4.67 4.67 0 0 0 0 4.84h.04c.34.49.8.86 1.3 1.2l.15-.04.01.1c1.05.39 2.23.44 3.29.07.4-.13.77-.37 1.15-.54.03-.74.01-1.48.02-2.22h-2.9c.02-.56.02-1.12 0-1.69 1.6 0 3.2.02 4.81 0-.03 1.58 0 3.16-.01 4.74l-.58.44c-.2.14-.41.26-.63.36l-.04.1-.2-.03-.03.16-.21-.04-.03.15-.16-.01a6.77 6.77 0 0 1-5.58.02 8.99 8.99 0 0 1-.93-.54l.02-.03a4.56 4.56 0 0 1-1.1-1.1l-.35-.48.03-.14-.16-.03.04-.22-.16-.02.01-.16a6.13 6.13 0 0 1-.16-4.61l.26-.6c.1-.2.23-.4.35-.59l.24-.35c.3-.36.61-.7 1-.97v-.02l.57-.41h.1c.15-.12.31-.25.52-.27l.02-.06.54-.18Zm-19.5-.1h1.85c.13.2.29.4.43.59l.38.5h.02c.14.2.3.38.44.57l.37.5h.03l.32.44.11.14.36.46c.13.16.27.33.38.52l.02-.02c.14.2.29.38.44.57.13.17.26.33.37.51l.02-.02.43.58c.14.17.27.33.38.5h.04l.3.44.12.14c.13.16.26.32.37.49h.04l.31.46c.12.14.25.27.4.39.03-2.59.02-5.18 0-7.77.65.02 1.3.02 1.95.01-.02 3.76 0 7.53 0 11.3h-1.64l-.32-.41-.1-.14-.37-.46-.36-.48-.47-.6-.38-.5-.02.01-.43-.57a5.41 5.41 0 0 1-.38-.51h-.02c-.14-.2-.3-.38-.44-.56a5.93 5.93 0 0 1-.38-.5l-.03-.01-.3-.44-.12-.13c-.13-.16-.26-.32-.37-.5h-.04l-.32-.44-.47-.6c-.13-.16-.26-.33-.37-.5h-.04l-.32-.47-.24-.09v7.89h-1.94V10.46Zm45.14 0c2.8.02 5.6 0 8.4 0-.03.59-.01 1.17-.02 1.76h-6.41v2.95h5.7v1.76c-1.9-.02-3.8.02-5.71-.01.02 1.03.02 2.06 0 3.09h6.52v1.74h-8.47c0-3.76.02-7.53 0-11.3Zm-68.4 0h5.18c.5 0 1.02.08 1.51.22.22.07.43.15.63.27l.15-.02.02.16.18-.02c.4.3.78.63 1.07 1.05l.11.23c.6 1.21.51 2.65-.23 3.77-.21.26-.46.5-.72.71a5.1 5.1 0 0 1-1.34.62c.1.21.24.41.38.61l.6.83.6.83.6.83c.2.28.4.55.58.84l.28.36h-2.3a10.45 10.45 0 0 1-.56-.76 8.01 8.01 0 0 1-.25-.4h-.03l-.56-.79a6.9 6.9 0 0 1-.24-.4h-.04l-.31-.44-.25-.39h-.04l-.29-.46c-.11-.11-.19-.33-.38-.3H55.8c-.02 1.31.02 2.63-.02 3.94h-1.93V10.46Zm1.96 1.79v3.83c1.07-.01 2.14.02 3.2-.02.55 0 1.05-.25 1.51-.5l-.05-.07.14-.03.03-.14.07.05c.53-.76.56-1.88-.12-2.57l-.37-.3-.16.06v-.13c-.38-.08-.75-.2-1.15-.19h-3.1Zm13.05-1.79h1.98v11.29h-1.98c0-3.76.02-7.53 0-11.29Zm40.33 0h1.98v9.52c1.99-.02 3.98 0 5.97 0v1.77h-7.94V10.46Zm27.22 0h5.14a5 5 0 0 1 2.94.89l-.03.04c.12.06.22.13.31.23l.22.25.3.47c.45.91.48 1.98.2 2.95l-.32.68-.04-.01c-.1.16-.21.3-.33.45l-.11.11c-.25.22-.5.42-.8.55l-.05.1h-.15c-.22.12-.46.21-.7.26l.2.43h.05l.56.8.6.82c.2.28.4.55.59.84a38.97 38.97 0 0 1 1 1.43h-2.28a2.84 2.84 0 0 1-.37-.57l-.03.01-.3-.44-.25-.36-.59-.83-.3-.41a5.1 5.1 0 0 1-.2-.36l-.09.06.03-.12c-.1-.11-.2-.23-.29-.36l-.37-.55c-.85-.03-1.71 0-2.57-.01v3.94h-1.97V10.47Zm1.97 1.78v3.84h2.93c.5 0 1.02-.1 1.46-.36h.15v-.07l.46-.42c.34-.52.33-1.16.23-1.74l-.25-.5-.1.01.03-.1-.17-.16-.1.03.03-.1a2.93 2.93 0 0 0-1.37-.42c-1.1-.02-2.2 0-3.3 0Z"/>
    <path fill="#FECC02" d="M17.27 13.85c1.24.02 2.47.08 3.7.15 1.4.12 2.84.52 3.94 1.44.58.48 1.02 1.29.73 2.05-.35.89-1.29 1.34-2.14 1.6-1.79.54-3.65.12-5.47.04a57 57 0 0 0-8.66 0c-.88.08-1.77.14-2.66.28-.15.01-1.5.24-2.06.36-.96.2-1.9.47-2.79.9-.53.29-1.07.65-1.31 1.22l-.05.16c-.1.84.67 1.48 1.3 1.95 1.16.79 2.48 1.29 3.79 1.78l.2.09c-.08.33-.13.67-.17 1a17.16 17.16 0 0 1-2.97-1.86 7.27 7.27 0 0 1-2.25-2.6l-.01.03-.14-.32a3.6 3.6 0 0 1 .13-2.93 5.92 5.92 0 0 1 1.9-2.1l.46-.32c2.64-1.57 5.68-2.27 8.69-2.65 1.23-.11 2.47-.23 3.7-.27-1.23.04-2.47.16-3.7.27a46.9 46.9 0 0 1 7.03-.31c.84.09 1.68.1 2.52.2a80.35 80.35 0 0 0-3.7-.16Z"/>
    <path fill="#A2C613" d="M38.71 15.43c-.28 2.97-1.97 5.62-4.04 7.69-3.02 2.98-6.85 5.02-10.82 6.45a44.99 44.99 0 0 1-11.35 2.41 7.39 7.39 0 0 1-5.39-1.67 4.24 4.24 0 0 1-1.49-3.43c.03-.34.1-.68.16-1.01l-.19-.09.2.04a5.8 5.8 0 0 1 2.2-2.7c.24-.18.48-.3.61-.4.78-.38 1.6-.68 2.46-.82l.5-.07a69.9 69.9 0 0 0 14.72-2.78 33.66 33.66 0 0 0 7.16-3.07 10.55 10.55 0 0 0 3.6-3.25c.64-1 .78-2.32.24-3.41a9.97 9.97 0 0 1 1.43 6.1ZM9.9.18c5.77-.49 11.69-.02 17.18 1.9 2.33.8 4.57 1.91 6.56 3.4 1.19.9 2.26 1.94 3.17 3.12-1.9-1.92-4.53-2.85-7.1-3.52-4.4-1.1-8.97-1.4-13.5-1.36a73.6 73.6 0 0 0-6.11.3 2.28 2.28 0 0 1-1.79-.7 1.7 1.7 0 0 1-.37-1.75C8.22.75 9.06.24 9.9.17Z"/>
    <path fill="#0097D8" d="M5.58 6.17c3-1.15 6.24-1.44 9.43-1.46 4.26.05 8.51.69 12.64 1.75 1.16.3 2.35.57 3.4 1.19a5.24 5.24 0 0 1 2.53 2.88 2.6 2.6 0 0 1-.58 2.5 4.4 4.4 0 0 1-2.59 1.23 7.7 7.7 0 0 1-3.1-.22A85.1 85.1 0 0 0 11.91 11c-2.32-.19-4.66-.29-6.97 0-1.17.18-2.4.42-3.38 1.11a1.98 1.98 0 0 0-.85 2.02c-.46-1.5-.4-3.19.4-4.55.97-1.67 2.7-2.73 4.46-3.41"/>
  </g>
</svg>
