<svg xmlns="http://www.w3.org/2000/svg" viewBox="0 0 141 24" width="217" height="37">
  <g fill="none" fill-rule="nonzero">
    <path fill="#98C521" d="M19.53 4.15c-.99.33-1.11 1.5-1.12 2.38-.02 3.42 0 6.85 0 10.28.02.8-.02 1.69.47 2.37.65.67 1.75.7 2.56.35.87-.44.9-1.53.93-2.37.02-3.41 0-6.83 0-10.24-.04-.82.05-1.78-.56-2.42-.6-.57-1.54-.58-2.28-.35Zm-.69-3.2c2-.37 4.35-.1 5.84 1.44 1.08 1.09 1.44 2.66 1.44 4.16 0 3.65.02 7.3-.01 10.96.04 2-1 4.1-2.9 4.9a7.1 7.1 0 0 1-6.23-.32c-1.68-1.01-2.37-3.06-2.32-4.93.02-3.79-.05-7.57.04-11.35A5.03 5.03 0 0 1 18.84.95ZM0 1.1c2.42.07 4.86-.16 7.26.2a4.7 4.7 0 0 1 3.88 3.2c.83 2.91.69 6.76-2.15 8.54l3.13 9.65h-3.8l-2.65-8.91-1.94.08v8.83H0V1.1Zm3.74 3.04v6.67c1.27-.07 3.09.25 3.74-1.16a6.65 6.65 0 0 0 0-4.36C6.8 3.88 5 4.21 3.74 4.13Zm25.99-3.04c2.4.05 4.81-.16 7.2.15a4.54 4.54 0 0 1 3.75 3.03c.81 2.46.4 5.77-2.12 7.08 1.1.6 2.17 1.43 2.55 2.67a8.5 8.5 0 0 1-.21 5.6 4.95 4.95 0 0 1-4.3 2.98c-2.28.16-4.58.03-6.87.07V1.1Zm3.74 18.55c1.3-.06 3.04.25 3.8-1.09.64-1.3.64-2.95.07-4.27-.71-1.44-2.52-1.27-3.86-1.32v6.68Zm0-15.52v5.84c1-.07 2.18.13 2.98-.63 1.12-1.05 1.08-2.88.42-4.18-.67-1.22-2.23-.98-3.4-1.03Zm11.84 18.55V1.08h3.73v21.6h-3.73ZM53.17 1.1h3.47c1.54 4.14 3.05 8.3 4.6 12.45V1.08h3.39v21.6h-3.26c-1.61-4.54-3.2-9.08-4.81-13.6-.02 4.53 0 9.06 0 13.6h-3.4l.01-21.6Zm50.42.04c1.84-.32 3.93-.14 5.43 1.08a5.47 5.47 0 0 1 1.83 4.35c0 3.78.03 7.56-.01 11.34 0 2.04-1.2 4.1-3.15 4.81-2 .7-4.38.62-6.17-.56-1.5-1.03-2.14-2.9-2.1-4.65.01-3.9-.08-7.79.04-11.68a5 5 0 0 1 4.13-4.69Zm.44 3.33c-.86.48-.86 1.58-.88 2.44v10.25c.03.72-.01 1.52.43 2.14.64.78 1.91.83 2.73.34.83-.52.77-1.62.81-2.47v-9.9c-.02-.8.02-1.68-.4-2.4-.65-.76-1.85-.82-2.7-.4Zm14.55-3.3c2-.39 4.3-.15 5.82 1.33 1.18 1.13 1.55 2.83 1.52 4.41-.01 3.65.03 7.3-.02 10.96.01 1.98-1.09 4.02-2.98 4.78a7.1 7.1 0 0 1-6.23-.42c-1.56-1-2.25-2.93-2.21-4.72 0-3.77-.04-7.55.02-11.32a5.06 5.06 0 0 1 4.08-5.03Zm.46 3.33c-.83.5-.79 1.58-.83 2.42v9.88c.03.83-.05 1.72.4 2.46.62.81 1.89.87 2.73.4.85-.51.81-1.62.84-2.49V6.91c-.03-.85 0-1.94-.85-2.43a2.43 2.43 0 0 0-2.29.01Zm-34.7-3.21h3.75v8.78h3.96V1.29h3.75v21.59h-3.74V13.3h-3.97v9.57h-3.75V1.26Zm45.2 0c2.55.1 5.17-.26 7.7.29 2.1.49 3.45 2.56 3.63 4.64.25 2.66.06 5.35.12 8.03-.02 2.15.16 4.5-1.05 6.4-.88 1.41-2.55 2.1-4.17 2.18-2.07.1-4.16.02-6.24.05V1.27Zm3.74 3.03v15.52c.99-.07 2.07.1 2.98-.36.92-.56.96-1.74.98-2.68.02-3.04 0-6.09 0-9.13-.03-.99.04-2.23-.85-2.9-.92-.6-2.08-.37-3.11-.45Z"/>
    <path fill="#0F415A" d="M71.2.1a.7.7 0 0 1 .34-.1c1.6-.06 3.2.5 4.44 1.5a9.98 9.98 0 0 1 3.08 4.73l.82-.1.13-.15.76.1-.64.3c-.25-.14-.53-.04-.79-.02.18.18.16.45.2.68 0 .1 0 .21-.03.32.63 1.06.94 2.28.9 3.51a9.67 9.67 0 0 1-1.7 4.9l-.2-.04.08-.15-2.25-2.66c.13.27.06.57 0 .84-.09.55-.39 1.01-.65 1.48-.16.31-.38.6-.53.9-.02.3-.05.6.09.87.07.17.2.31.27.5.17.4.15.84.19 1.27l.09 1.48c.05.43.18.85.25 1.28.02.17-.04.34.02.5.1.28.22.55.3.83.05.25.04.5.04.75-.01.18-.13.38-.32.37-.27 0-.54.02-.8-.01-.28-.08-.35-.4-.43-.63-.04-.6.1-1.21-.03-1.81l-.11-.71c-.05-.35-.2-.67-.3-1-.3.06-.44.32-.63.51-.27.08-.56.11-.84.16-.15.04-.3-.01-.44-.06l.02-.36c.25-.04.6-.1.67-.38.06-.25.3-.52.12-.77-.13-.3-.44-.44-.68-.63-.52-.44-1.18-.63-1.74-1-.21-.2-.55-.11-.76-.32-.17-.2-.34-.43-.4-.7.02-.13.1-.24.17-.36.4-.63.8-1.26 1.24-1.88.32-.43.79-.72 1.22-1.03.09-.06.14-.15.19-.24l.42-.76c-.07-.22-.18-.43-.22-.67-.04-.15-.04-.33-.16-.44L71.2 9.33c-.08-.1-.21-.12-.33-.16l-.86-.23c-.72-.16-1.41-.43-2.1-.7a.35.35 0 0 1-.22-.38c0-.13.11-.2.2-.29.17-.13.23-.36.42-.46.1-.07.24-.07.37-.08l2.25-.08c-.22-.34-.37-.72-.66-1l-.45-.49.98-.57.07-.19c-.24.04-.47.17-.71.12-.17-.02-.32-.1-.47-.15-.19-.07-.4-.02-.6 0 .2-.35.64-.45 1-.43.4 0 .76.14 1.14.2.13.06.24.15.36.23L71.39.15l-.2-.05Zm6.94 7.5c-.27.1-.53.18-.8.26-.3.05-.37.42-.66.49l-1.13.15c.12.42.08.85.11 1.28.02.32.17.61.23.93.05.34-.02.68.01 1.02.18.38.33.8.63 1.1l2.15 2.58a9.13 9.13 0 0 0 1.26-4.38c0-1.23-.3-2.48-.99-3.5-.27 0-.55-.02-.81.08Zm-3.41-.73c.28.06.56.16.85.2.65-.12 1.29-.27 1.93-.4.3-.06.6-.09.87-.2-1.22.1-2.43.27-3.65.4ZM71.56.16c.1 1.5.18 3.02.27 4.52.17.03.34.05.5.1.26.17.42.48.72.58l1.02.35c-.21.4-.71.4-1.1.47.03.2 0 .4-.02.6.28-.15.56-.34.89-.38.27-.02.5.15.7.3l4-.42a9.06 9.06 0 0 0-2.18-4 7.07 7.07 0 0 0-4.8-2.12Zm.46 15.77c.11.12.23.24.37.32l1 .65c.06-.34.2-.66.2-1 0-.43.14-.85.13-1.28-.53.49-1.12.89-1.7 1.3Z"/>
  </g>
</svg>
