<svg xmlns="http://www.w3.org/2000/svg" viewBox="0 0 166 45" width="130" height="35">
  <g fill="#2DACFD" fill-rule="nonzero">
    <path d="M29.23 24.15c-1.9-2.13-4.8-3.61-8.62-4.4l-7.04-1.51c-1.8-.38-3.36-.8-4.27-1.77a4.7 4.7 0 0 1-1.32-3.84 6.2 6.2 0 0 1 2.41-4.21 8.74 8.74 0 0 1 5.69-1.95h.09c1.74 0 3.23.29 4.44.85a8.76 8.76 0 0 1 2.92 2.1c.71.81 1.45 2.06 1.95 3.37l6.2-2.33c-.32-.93-.72-1.83-1.2-2.7a14.37 14.37 0 0 0-2.73-3.63 14.9 14.9 0 0 0-4.7-2.96A18.56 18.56 0 0 0 16 0h-.14c-1.96 0-3.9.36-5.75 1.06-1.72.65-3.3 1.62-4.66 2.87a13.83 13.83 0 0 0-3.12 4.2 11.3 11.3 0 0 0-1.12 4.98c.01 2.88.93 5.38 2.71 7.4a13.51 13.51 0 0 0 7.6 4.13l7.41 1.62c2.02.45 3.9 1.24 5.05 2.23 1 .86 1.59 2.36 1.39 3.8a6.18 6.18 0 0 1-2.32 4.13c-1.59 1.25-3.05 1.77-5.81 1.86h-.1c-3.18 0-5.36-.61-7.6-2.23a7.87 7.87 0 0 1-2.66-3.1c-.3-.58-.56-1.17-.77-1.78L0 33.37a12.18 12.18 0 0 0 1.27 3.33c.8 1.47 1.85 2.8 3.1 3.9A16.62 16.62 0 0 0 9.5 43.6a20.2 20.2 0 0 0 7.33 1.19h.14c2.6-.02 4.87-.42 6.76-1.2a13.55 13.55 0 0 0 7.45-7.21c.6-1.4.9-2.91.91-4.44.01-3.06-.96-5.69-2.86-7.8Zm63.7 12.48a10.88 10.88 0 0 1-5.18 1.43h-.11c-1.66 0-2.77-.36-3.54-1.15-.85-.88-1.24-2.3-1.17-4.3V20.14h9.03v-6.7h-9V3.27h-6.7v10.15h-4.37v6.72h4.36v13.09c.02 3.88 1 6.85 2.82 8.81 1.81 1.97 4.52 2.95 8.09 2.95h.08c3.22-.2 5.1-.51 8.6-2.36l-2.91-6ZM152 13.41c-1.18-.04-2.36 0-3.54.1-5.85.58-10.15 4.23-12.1 10.28-1.25 3.84-1.2 10.34-1.18 11.06v9.96h6.72V34.1c0-.03-.14-5.28.83-8.24.72-2.23 2.17-5.23 6.37-5.67.96-.1 1.93-.13 2.9-.1v-6.7ZM158 14h7v31h-7z"/>
    <circle cx="162" cy="5" r="4"/>
    <path d="M60.55 13.85v16.63c0 4.3-3.54 7.8-7.92 7.8a7.86 7.86 0 0 1-7.91-7.8V13.85H38v16.63c0 7.92 6.6 14.41 14.63 14.41 8.05 0 14.64-6.49 14.64-14.41V13.85h-6.72ZM131 28.63A16.13 16.13 0 0 0 114.39 13a16.1 16.1 0 0 0-15.86 16.37A16.14 16.14 0 0 0 115.13 45 16.1 16.1 0 0 0 131 28.63Zm-16.03 9.92a9.64 9.64 0 0 1-9.93-9.33 9.62 9.62 0 0 1 9.47-9.78 9.64 9.64 0 0 1 9.93 9.33 9.63 9.63 0 0 1-9.47 9.78Z"/>
  </g>
</svg>
