<svg xmlns="http://www.w3.org/2000/svg" viewBox="0 0 45 64">
  <path fill="#CB3B43" fill-rule="nonzero" d="M15.45 15.33h14.1v14h-14.1v-14Zm0 15.34h14.1v14h-14.1v-14ZM30.9 0H45v14H30.9V0ZM15.45 0h14.1v14h-14.1V0ZM0 0h14.1v14H0V0Zm0 52.67v2.16h3.32V64h2.76v-9.17H9.4v-2.16H0Zm14.64 4.08A130.6 130.6 0 0 0 14.1 64h2.04a589 589 0 0 1 .1-2.97c.04-1.06.1-2.14.19-3.23l.42 1.2.45 1.35.43 1.28.36 1.04h1.34l.37-1.04.46-1.28.48-1.35.44-1.22c.08 1.08.14 2.16.18 3.25.04 1.07.08 2.06.1 2.97h2.05l-.14-2.36-.18-2.5a70.94 70.94 0 0 0-.5-4.47h-1.77c-.17.34-.33.7-.47 1.05-.18.41-.36.87-.55 1.35l-.57 1.5-.52 1.43-.5-1.43a153.92 153.92 0 0 0-1.08-2.85c-.17-.42-.31-.77-.44-1.05h-1.87c-.11.69-.2 1.38-.28 2.08Zm10.88-2.08h2.02V64h-2.02v-9.33Zm-15.45 0h2.02V64h-2.02v-9.33Zm25.53 0v1.77h-4.03v1.72h3.22v1.78h-3.22V64h-2.02v-9.33h6.05Zm4.1 5.51-1.84-2.95-1.6-2.56h2.17s.23.18 1.2 1.8c.84 1.44 1.02 1.95 1.02 1.95s.16-.52.99-1.94c.82-1.41 1.2-1.81 1.2-1.81H45l-3.4 5.51V64h-1.9v-3.82Z"/>
</svg>
