<svg xmlns="http://www.w3.org/2000/svg" viewBox="0 0 187 32" height="32" width="187">
  <path fill="#00A88F" fill-rule="nonzero" d="M21.55 3.4a9.92 9.92 0 0 1 14 0 9.86 9.86 0 0 1 0 13.95l-13.53 13.5a3.96 3.96 0 0 1-5.6 0l16.33-16.29a5.88 5.88 0 0 0 0-8.38 5.95 5.95 0 0 0-8.4 0l-10.72 10.7-5.14-5.11a1.97 1.97 0 0 1 0-2.8 1.98 1.98 0 0 1 2.8 0l2.34 2.33 7.92-7.9Zm155.02 5.54c5.93 0 9.5 3.77 9.5 9.96 0 .75-.1 1.5-.1 1.6h-13.76c.1 2.53 2.27 4.37 4.84 4.37 2.42 0 3.75-1.2 4.39-2.93l4.39 1.3c-1 3.32-4.03 6.1-8.78 6.1-5.3 0-9.95-3.8-9.95-10.3 0-6.12 4.54-10.1 9.47-10.1Zm-92.48 0c6.11 0 8.38 3.44 8.38 7.3v9.45c0 1.02.12 2.38.24 3.05h-4.78c-.09-.49-.18-1.54-.18-2.3-1 1.54-2.84 2.87-5.69 2.87-4.11 0-6.63-2.78-6.63-5.8 0-3.44 2.55-5.37 5.75-5.85l4.75-.7c1.1-.15 1.46-.69 1.46-1.35 0-1.36-1.06-2.5-3.24-2.5-2.27 0-3.54 1.44-3.7 3.13l-4.62-.97c.3-3.01 3.08-6.33 8.26-6.33Zm47.8-8.49v21.8c0 1.66.93 2.14 2.23 2.14.28 0 .55 0 .91-.03v4.44c-.73.15-1.33.24-2.15.24-3.75 0-6.11-2.2-6.11-5.92V.45h5.11ZM55.36 3.77v5.75h3.89v4.62h-3.89v8.05c0 1.69.79 2.23 2.28 2.23.63 0 1.33-.07 1.6-.15v4.3c-.47.2-1.4.47-2.93.47-3.77 0-6.12-2.23-6.12-5.95v-8.95H46.7V9.52h.98c2.04 0 2.98-1.33 2.98-3.05v-2.7h4.7ZM116.17 9c4.78 0 6.96 3.4 6.96 7.63v12.14h-5.2V17.54c0-2.15-1.07-3.84-3.58-3.84-2.27 0-3.6 1.76-3.6 3.99v11.05h-5.2V9.5h5.05v2.38c1.18-1.99 3.48-2.9 5.57-2.9Zm41.43 0c4.78 0 6.96 3.4 6.96 7.63v12.14h-5.2V17.54c0-2.15-1.06-3.84-3.57-3.84-2.27 0-3.6 1.76-3.6 3.99v11.05h-5.2V9.5h5.05v2.38c1.18-1.99 3.48-2.9 5.56-2.9Zm-84.68.36c.43 0 .82.06 1.21.09v5.22a7.66 7.66 0 0 0-1.57-.15c-2.66 0-4.96 1.3-4.96 5.43v8.79h-5.2V9.5h5.05v2.87c1.18-2.54 3.84-3.02 5.47-3.02Zm28.66.15v19.23h-5.2V9.5h5.2Zm41.44 0v19.23h-5.2V9.5h5.2ZM2.9 3.39a9.92 9.92 0 0 1 13.5-.45l-2.8 2.8a5.92 5.92 0 0 0-7.9 8.81v.01l7.92 7.9L27.15 8.99a1.98 1.98 0 0 1 2.8 0c.77.77.77 2.02 0 2.79L13.62 28.05 2.9 17.35A9.8 9.8 0 0 1 0 10.37 9.8 9.8 0 0 1 2.9 3.4ZM87.36 20.1l-4.36.67c-1.33.18-2.4.93-2.4 2.41 0 1.15.83 2.24 2.52 2.24 2.2 0 4.24-1.06 4.24-4.47v-.85Zm89.24-6.97a4.18 4.18 0 0 0-4.3 3.8h8.6c-.07-1.93-1.34-3.8-4.3-3.8ZM98.95 0a3.2 3.2 0 1 1 0 6.4 3.2 3.2 0 1 1 0-6.4Zm41.46 0a3.2 3.2 0 1 1 0 6.4 3.22 3.22 0 0 1-3.2-3.17A3.17 3.17 0 0 1 140.4 0Z"/>
</svg>
