<svg xmlns="http://www.w3.org/2000/svg" viewBox="0 0 89 48" width="88" height="48">
  <defs>
    <radialGradient id="a" cx="53.66%" cy="49.9%" r="38.7%" fx="53.66%" fy="49.9%" gradientTransform="scale(-.60269 -1) rotate(-47.59 -1.3 1.62)">
      <stop offset="0%" stop-color="#39ACDE"/>
      <stop offset="100%" stop-color="#0E3C64"/>
    </radialGradient>
    <linearGradient id="b" x1="50%" x2="50%" y1="67.53%" y2="100%">
      <stop offset="0%" stop-color="#818485"/>
      <stop offset="100%" stop-color="#FFF" stop-opacity="0"/>
    </linearGradient>
  </defs>
  <g fill="none" fill-rule="nonzero">
    <path fill="url(#a)" d="M82.69 0H88L76.03 35.85H70.2l-7.6-23.48h5.3l5.22 16.5h.07L82.69 0Zm-29.3 12.37h5.29l8.78 23.48H62.1l-1.78-5.23h-8.78l-1.84 5.23h-5.2l8.88-23.48Zm-20.9 0v8.55h.07a4.99 4.99 0 0 1 2.32-1.93c.96-.4 2-.6 3.04-.6a6.47 6.47 0 0 1 4.78 2.13 8.24 8.24 0 0 1 1.63 2.78c.42 1.13.63 2.47.63 4.03s-.21 2.9-.63 4.03a8.24 8.24 0 0 1-1.63 2.78 6.47 6.47 0 0 1-4.78 2.13c-1.25 0-2.37-.2-3.36-.59a4.26 4.26 0 0 1-2.23-2h-.07v2.17h-4.43V12.37h4.66Zm23.46 5.79-3.06 8.61h6.08l-2.96-8.61h-.06ZM36.3 32.79a3.42 3.42 0 0 0 3.02-1.64c.33-.5.57-1.09.73-1.75a8.98 8.98 0 0 0 0-4.1 5.42 5.42 0 0 0-.73-1.75 3.42 3.42 0 0 0-3.03-1.64 3.44 3.44 0 0 0-3.02 1.64 5.4 5.4 0 0 0-.72 1.74 9.07 9.07 0 0 0 0 4.11c.15.66.4 1.24.72 1.75a3.44 3.44 0 0 0 3.02 1.64Z"/>
    <path fill="url(#b)" d="m20.18 17.33-3.21 4.82-3.26-4.82H7.92L14 26.08 0 48h5.68l11.21-18.02 3.86 5.83h5.8l-6.83-9.83 6.08-8.65z"/>
  </g>
</svg>
